<svg width="87" height="96" viewBox="0 0 87 96" fill="none" xmlns="http://www.w3.org/2000/svg">
<g clip-path="url(#clip0_660_13317)">
<path d="M53.3347 43.313L53.3398 43.3319L53.3342 43.3143L53.3347 43.313Z" fill="#E43D4C"/>
<path d="M29.0901 20.1649C29.0976 20.1757 29.1023 20.1842 29.1017 20.1861C29.1003 20.1902 29.0951 20.1774 29.0901 20.1649Z" fill="#E43D4C"/>
<path d="M39.8779 31.3318C39.8798 31.3232 39.8809 31.3139 39.8819 31.3047L39.8847 31.304L39.8779 31.3318V31.3318Z" fill="#E43D4C"/>
<path d="M39.8992 23.4265L39.9081 23.4322L39.9099 23.4484L39.9098 23.4524L39.9109 23.4539C39.9118 23.4646 39.9131 23.4665 39.9129 23.4583C39.9173 23.4671 39.9209 23.4752 39.9259 23.4832C39.9633 23.5424 39.9339 23.5098 39.909 23.4736C39.888 23.4426 39.871 23.4099 39.8993 23.4265L39.8992 23.4265Z" fill="#E43D4C"/>
<path d="M53.4234 43.4496C53.4255 43.4544 53.4388 43.4788 53.4688 43.5324C53.4411 43.4842 53.4108 43.4366 53.3845 43.3873C53.3663 43.3529 53.3513 43.3215 53.3398 43.2955L53.3433 43.2695C53.3541 43.1795 53.3564 43.0879 53.366 42.9975C53.3914 42.7626 53.4285 42.5285 53.468 42.2958C53.6914 40.9863 54.005 39.6907 54.3199 38.4003C54.4364 37.9212 54.5843 37.3567 54.7093 36.8329C54.8289 36.3331 54.8861 35.828 54.7528 35.3235C54.6178 34.8119 54.3115 34.3724 54.0225 33.9356C52.9407 32.3009 51.7409 30.7608 50.377 29.3533C50.6082 28.8017 50.7535 28.1897 50.8862 27.625C51.2226 26.1995 51.5515 24.7036 51.6372 23.2375C51.6485 23.0411 51.6694 22.8234 51.6367 22.6302C51.5342 22.0245 51.0597 21.5095 50.6561 21.0782C49.7664 20.1278 48.875 19.1792 47.9838 18.23C48.2753 17.1846 48.5701 16.1404 48.8531 15.0925C49.0126 14.5014 49.1719 13.91 49.3259 13.3175C49.4714 12.7565 49.5682 12.2228 49.3509 11.6632C49.1451 11.1337 48.7213 10.724 48.3439 10.3134C47.9141 9.8454 47.4863 9.37615 47.0606 8.90493C46.2442 8.00215 45.428 7.09878 44.6116 6.196C44.3486 5.90454 43.9987 5.8887 43.7203 6.01998C43.0386 5.75799 42.2749 5.69674 41.5602 5.58087C40.7592 5.45132 39.9521 5.36045 39.1474 5.25738C38.343 5.15418 37.5386 5.03298 36.7307 4.96582C35.9071 4.89694 35.0817 4.84632 34.2576 4.78192C33.9732 4.76003 33.7854 4.91046 33.7057 5.10684C33.1695 5.21735 32.64 5.40469 32.1343 5.59385C31.5521 5.81078 30.9669 6.01877 30.3915 6.25316C29.8178 6.48681 29.2446 6.72073 28.6721 6.95729C28.0332 7.22116 27.3907 7.47483 26.788 7.81582C26.629 7.90583 26.5088 8.02845 26.4384 8.172L26.4218 8.18418C26.1886 8.37846 26.104 8.80209 26.3374 9.03548C27.6306 10.33 28.4602 11.9932 29.6818 13.345C29.1997 14.4124 28.8747 15.523 28.593 16.6629C28.4543 17.2228 28.3212 17.7843 28.1744 18.3424C28.0208 18.926 27.7754 19.53 27.7787 20.1395C27.7818 20.7739 28.1758 21.1933 28.5638 21.6552C29.6046 22.8943 30.7574 24.0352 31.7809 25.2891C31.6809 25.5845 31.5895 25.8829 31.5015 26.1824C31.1584 27.3522 30.8618 28.5365 30.585 29.7235C30.3822 30.5928 30.1296 31.4753 30.0272 32.3642C29.959 32.9555 30.2123 33.471 30.5298 33.9597C31.069 34.7896 31.6617 35.5897 32.224 36.4046C32.7949 37.2323 33.3771 38.0526 33.9539 38.8762C34.1966 39.2229 34.5303 39.5997 34.4638 40.0509C34.4192 40.3516 34.2865 40.6415 34.1902 40.929C33.7434 42.2638 33.3766 43.6287 33.0664 45.0008C32.9095 45.6945 32.7393 46.3867 32.5927 47.0827C32.4924 47.56 32.3046 48.1927 32.5974 48.6259C33.5057 49.9676 34.4636 51.2704 35.3018 52.6595C35.7731 53.4399 36.2819 54.255 36.5637 55.1272L36.5705 55.1481L36.5748 55.1686C36.5828 55.2041 36.5906 55.2396 36.5982 55.2752C36.6068 55.3186 36.6102 55.3659 36.6119 55.3841C36.6085 55.4368 36.6034 55.4892 36.597 55.5417C36.5546 55.877 36.4812 56.2094 36.4226 56.5421C36.2466 57.5332 36.122 58.5337 35.9293 59.5213C35.7969 60.1998 35.6129 60.8854 35.5244 61.5714C35.4976 61.7761 35.5642 61.9324 35.6644 62.1022L35.6798 62.1315C35.7043 62.1747 35.7309 62.2172 35.7568 62.2598C35.8237 62.3721 35.8908 62.4848 35.9581 62.5969C36.4215 63.3735 36.9111 64.1215 37.4232 64.8674C38.0022 65.7101 38.5377 66.5855 39.081 67.4512C39.4349 68.0154 39.7883 68.4829 40.0789 69.1057C40.3046 69.5899 40.0517 70.1924 39.9607 70.6885C39.8435 71.3288 39.7336 71.97 39.6263 72.6118C39.5665 72.9697 39.5064 73.3276 39.4487 73.686C39.3107 74.5473 39.0513 75.4868 39.3269 76.3461C39.6149 77.2443 40.3754 77.9773 40.9591 78.6941C41.5901 79.4695 42.2212 80.2449 42.8527 81.0201C43.1552 81.3916 43.5228 81.7612 43.7411 82.1907C43.9292 82.5605 43.9086 82.9623 43.8577 83.3617C43.6158 85.2723 43.3927 87.1761 43.2891 89.0993C43.122 89.3635 43.239 89.7533 43.4873 89.9445C43.495 90.0629 43.5355 90.1796 43.6033 90.2641C43.8812 90.6133 44.5224 90.6213 44.9415 90.7042C45.3124 90.7772 45.6826 90.8549 46.0557 90.9176C46.7739 91.0388 47.492 91.1611 48.2117 91.2738C49.551 91.4834 50.9082 91.5848 52.262 91.5679C52.4177 91.7668 52.6817 91.8176 52.9193 91.731C53.0095 91.698 53.1252 91.6959 53.222 91.6546C53.3015 91.6206 53.3784 91.5785 53.4565 91.5411C53.6231 91.4615 53.7905 91.3838 53.9579 91.3048C54.257 91.1633 54.5525 91.0127 54.8515 90.8697C55.2354 90.6861 55.623 90.5109 56.011 90.3368C56.2065 90.2491 56.402 90.1615 56.5974 90.0736C57.8225 89.5224 59.0397 88.9517 60.2326 88.3348C60.4834 88.2054 60.5109 87.9619 60.4087 87.7866C60.4506 87.7526 60.4872 87.7097 60.5136 87.6571C61.1351 86.431 61.5702 85.1622 62.0174 83.8656C62.2393 83.2218 62.4618 82.5791 62.6702 81.931C62.8514 81.3678 63.0983 80.7714 62.9675 80.1694C62.8221 79.5002 62.3473 78.9581 61.9523 78.4188C61.5464 77.8648 61.1381 77.3124 60.7366 76.755C60.0038 75.7385 59.271 74.7219 58.5385 73.7047C59.1294 70.9706 59.9896 68.3092 61.1421 65.7589C61.2486 65.5229 61.183 65.2259 61.0249 65.03C59.2944 62.8826 57.8893 60.4307 56.5417 58.027C56.9548 56.2461 57.3647 54.4633 57.7419 52.6739C57.8875 51.9823 58.0941 51.2623 58.1418 50.5544C58.1861 49.9049 57.6144 49.3105 57.2614 48.8131C56.0344 47.0832 54.702 45.4192 53.5417 43.6428C53.5184 43.6068 53.432 43.4606 53.4232 43.4494L53.4234 43.4496ZM55.077 57.7731C54.799 57.838 54.526 57.9319 54.2521 58.0102C53.8277 58.1322 53.4031 58.2525 52.9777 58.3712C52.1274 58.6092 51.2753 58.8413 50.4212 59.0674C49.5404 59.3008 48.6539 59.5144 47.7786 59.7688C47.4006 59.8787 47.0235 59.9951 46.6423 60.0923C46.4927 60.131 46.3405 60.1649 46.1866 60.1776C46.1132 60.1836 46.118 60.1649 46.0124 60.172L45.9858 60.1671C45.9675 60.1533 45.9495 60.1393 45.9323 60.1245C45.8447 60.0558 45.7447 60.0196 45.6425 60.009C45.6495 59.4963 45.7006 58.9764 45.7427 58.4745C45.8621 57.0539 46.0865 55.6343 46.4475 54.2545C46.6183 53.602 46.9264 52.9182 46.9029 52.2348C46.8998 52.1519 46.8907 52.0711 46.8768 51.9925C46.9315 51.9717 46.9865 51.9529 47.0424 51.9381C47.2722 51.8758 47.4851 51.8454 47.7213 51.8238C48.1775 51.7812 48.6299 51.6873 49.0855 51.6367C49.9717 51.5377 50.8599 51.4651 51.7467 51.3728C52.6337 51.2798 53.5209 51.1897 54.4102 51.1152C54.8692 51.0767 55.3275 51.0323 55.7862 50.9876C56.0143 50.9652 56.2467 50.9548 56.4738 50.9225C56.5059 50.9177 56.5385 50.9121 56.5709 50.9061C56.4873 51.3682 56.3894 51.8278 56.292 52.2873C56.009 53.6197 55.7151 54.9496 55.416 56.2788C55.31 56.7498 55.2034 57.2206 55.0962 57.6911L55.0771 57.7731L55.077 57.7731ZM59.147 64.9893C59.1061 64.9927 59.0658 64.9963 59.0257 64.9994C58.5845 65.0339 58.1428 65.0632 57.7033 65.1116C56.8392 65.2066 55.9754 65.3 55.1111 65.3923C54.2471 65.4843 53.3845 65.586 52.5218 65.6908C52.0887 65.7436 51.6316 65.7622 51.208 65.865C51.0021 65.9153 50.8141 65.9722 50.602 65.992C50.3796 66.013 50.1414 65.9786 49.9322 66.0556C48.9096 64.8587 47.8874 63.6617 46.8654 62.4647C46.5623 62.1095 46.1609 61.7469 45.9051 61.3291C46.1143 61.3563 46.3306 61.3624 46.5598 61.3316C46.9733 61.2762 47.381 61.1541 47.7857 61.0558C48.7002 60.8338 49.6013 60.565 50.5034 60.2974C51.3783 60.0378 52.2513 59.7716 53.1227 59.4995C53.5722 59.3595 54.0212 59.2173 54.4697 59.0739C54.7353 58.9886 55.0088 58.9149 55.2725 58.8187C55.4085 59.057 55.5596 59.2896 55.6955 59.522C56.0875 60.1928 56.4858 60.8592 56.8918 61.5213C57.6104 62.6927 58.3368 63.8738 59.1471 64.9893L59.147 64.9893ZM57.0745 73.7711C56.9247 73.7523 56.7742 73.7353 56.624 73.7166C56.2206 73.6672 55.8176 73.6152 55.4126 73.5832C54.6029 73.5183 53.7929 73.4595 52.9829 73.406C52.1589 73.3518 51.3352 73.2985 50.5094 73.2788C50.1038 73.2693 49.6981 73.2609 49.2926 73.2539C49.0901 73.2505 48.8871 73.2493 48.6845 73.2445C48.6644 73.2441 48.6438 73.2439 48.6234 73.2441C48.8042 72.5998 48.9952 71.9589 49.1981 71.3214C49.6145 70.0126 50.0779 68.7197 50.5848 67.4431C50.6235 67.3468 50.6398 67.2416 50.6362 67.137C50.6517 67.1345 50.6668 67.1313 50.6829 67.1291C50.8714 67.1031 51.0417 67.0977 51.2311 67.1025C51.6946 67.1147 52.1643 67.0267 52.6243 66.9732C53.5019 66.8703 54.3784 66.7625 55.2535 66.6406C56.1282 66.519 57.0028 66.3958 57.8767 66.2712C58.3138 66.2087 58.7479 66.1263 59.1827 66.0487C59.2645 66.0342 59.3486 66.02 59.4335 66.005C58.8718 67.3325 58.3826 68.6894 57.9707 70.0713C57.7527 70.8041 57.5583 71.5429 57.3791 72.2864C57.2821 72.6887 57.1908 73.0928 57.1068 73.4981C57.0858 73.598 57.0759 73.6876 57.0744 73.7711L57.0745 73.7711ZM61.3867 79.9969C61.2209 79.9608 61.055 79.9266 60.8865 79.902C60.4508 79.8381 60.0162 79.7732 59.5812 79.7075C58.6815 79.5717 57.7841 79.4227 56.8835 79.2936C55.9831 79.164 55.0838 79.0183 54.1819 78.8986C53.7451 78.8411 53.3086 78.7818 52.8724 78.7221C52.6393 78.6903 52.4066 78.6583 52.174 78.6258C52.0249 78.6053 51.8792 78.5725 51.7322 78.5514C51.6343 78.4022 51.524 78.2582 51.404 78.1187C50.9355 77.5752 50.4362 77.0561 49.9496 76.5293C49.4863 76.0273 48.9637 75.5423 48.5555 74.9942C48.3931 74.7768 48.3471 74.5491 48.3595 74.3166L48.3899 74.3168C48.4912 74.3176 48.5922 74.3188 48.694 74.3218C48.8962 74.3278 49.0987 74.3335 49.3011 74.3399C49.7063 74.3529 50.1113 74.3675 50.5162 74.3831C51.3282 74.4147 52.1411 74.4217 52.9536 74.4424C53.7818 74.4631 54.6102 74.4899 55.4382 74.5223C55.8459 74.5387 56.2552 74.5333 56.6635 74.5376C56.9002 74.5401 57.1365 74.5461 57.3726 74.544C57.3951 74.576 57.4186 74.608 57.4431 74.6415C58.433 75.979 59.4281 77.3127 60.4069 78.6584C60.6556 79 60.9048 79.3413 61.1533 79.6835C61.2243 79.7809 61.3096 79.8861 61.3866 79.9969L61.3867 79.9969ZM59.8642 87.0149C59.6421 86.9354 59.4189 86.8578 59.1835 86.8066C58.8065 86.7242 58.4264 86.6557 58.0476 86.5804C57.2914 86.4296 56.5298 86.3139 55.7683 86.1918C54.4217 85.9766 53.0643 85.8237 51.7083 85.6821C51.5416 85.6648 51.3748 85.6467 51.2083 85.6296C51.2372 85.4987 51.2671 85.368 51.2971 85.2373C51.5485 84.1449 51.8335 83.0597 52.0322 81.9548C52.1468 81.3163 52.2473 80.6661 52.2232 80.015C52.2208 79.9571 52.2163 79.8997 52.2102 79.8429C52.3859 79.8717 52.5614 79.9011 52.7369 79.9295C53.172 80.001 53.607 80.071 54.0426 80.1403C54.9408 80.2836 55.845 80.3931 56.7469 80.5108C57.6481 80.6289 58.5531 80.7194 59.457 80.8149C59.894 80.8612 60.3314 80.9068 60.7685 80.9511C61.0036 80.9752 61.2362 80.9804 61.4723 80.985C61.4915 80.9854 61.5107 80.9856 61.53 80.9864C61.4682 81.191 61.3814 81.3943 61.3237 81.5786C61.2056 81.9542 61.0934 82.331 60.9833 82.7083C60.5656 84.1395 60.1229 85.5494 59.8642 87.0148L59.8642 87.0149ZM45.3202 89.5264L45.972 89.2291C46.6021 88.942 47.2322 88.6551 47.8623 88.3679C48.4932 88.0803 49.1188 87.7858 49.742 87.4831C50.2457 87.2379 50.7275 86.9726 51.2051 86.6917C51.7816 86.8012 52.3591 86.9084 52.9373 87.0118C53.8171 87.1691 54.6989 87.3158 55.5844 87.4333C56.3327 87.5324 57.0797 87.6405 57.8314 87.7108C58.2144 87.7473 58.5973 87.7857 58.9805 87.8195C59.0464 87.8251 59.112 87.8279 59.1772 87.8299C58.1225 88.1623 57.0716 88.5179 56.0502 88.9385C55.7304 89.0703 55.4122 89.2069 55.0953 89.3463C54.8138 89.4702 54.5332 89.5963 54.254 89.7246C53.9392 89.8692 53.624 90.0142 53.3178 90.1759C53.1661 90.2559 53.0146 90.3367 52.8638 90.4187C52.7532 90.4786 52.6278 90.5343 52.5281 90.6109C52.4602 90.6633 52.404 90.742 52.3391 90.7882C52.3279 90.796 52.318 90.8043 52.3076 90.8128C50.9702 90.591 49.6407 90.3298 48.3072 90.084C47.5757 89.9492 46.8466 89.8046 46.1169 89.6616C45.8525 89.61 45.5867 89.5672 45.3203 89.5262L45.3202 89.5264ZM29.0911 20.1654C29.098 20.1755 29.1024 20.1833 29.1018 20.1851C29.1006 20.189 29.0958 20.177 29.0911 20.1654ZM33.6177 6.31327C35.0513 8.02428 36.4582 9.75829 37.8119 11.5328C37.3239 13.6989 36.3298 15.7249 35.3275 17.6918C35.1679 18.0046 35.3583 18.372 35.5912 18.5768C35.6722 18.6483 35.7516 18.7215 35.8317 18.7944L35.8746 18.834L35.9059 18.8636C35.9541 18.9096 36.0029 18.9558 36.0513 19.0022C36.2985 19.2393 36.5427 19.4796 36.7846 19.7223C37.3552 20.2944 37.9171 20.8776 38.452 21.4839C38.905 21.9977 39.3557 22.5241 39.7318 23.0986C39.7228 23.0904 39.8429 23.2917 39.8644 23.3378C39.8769 23.3649 39.8871 23.3966 39.8988 23.4264L39.9078 23.4322L39.9097 23.4484L39.9095 23.4524L39.9106 23.4539C39.9115 23.4647 39.9128 23.4666 39.9127 23.4584C39.9171 23.4671 39.9207 23.4753 39.9257 23.4833C39.9633 23.5428 39.9337 23.51 39.9088 23.4737C39.9065 23.5356 39.903 23.598 39.8969 23.6602C39.8855 23.7861 39.8663 23.911 39.844 24.0353C39.8 24.2768 39.7333 24.5122 39.6625 24.7471C39.3108 25.9182 39.025 27.0609 38.7925 28.2599C38.6737 28.8744 38.5582 29.49 38.46 30.1081C38.3933 30.5292 38.2814 31.011 38.3423 31.4393C38.4095 31.9149 38.8647 32.2645 39.1688 32.6022C39.5585 33.0361 39.9468 33.4712 40.3396 33.9023C41.1619 34.8039 41.9909 35.6992 42.8092 36.604C43.1532 36.9845 43.5921 37.3511 43.5316 37.9048C43.4721 38.4484 43.3083 38.9916 43.1855 39.5236C42.9133 40.7047 42.6242 41.8751 42.2807 43.0372C42.0512 43.8135 41.8265 44.5916 41.6035 45.3704C41.4878 45.5052 41.4264 45.6823 41.4565 45.8853C41.4023 46.0763 41.3475 46.2671 41.293 46.4577C41.1511 46.9577 41.2484 47.2096 41.5739 47.6022C41.744 47.8074 41.9143 48.013 42.0848 48.2181C42.4766 48.6906 42.8728 49.1592 43.2679 49.6293C43.697 50.1399 44.1261 50.6505 44.5551 51.1617C44.7266 51.3657 44.9005 51.5684 45.0699 51.7743C45.1914 51.9216 45.3594 52.0781 45.3837 52.2778C45.4084 52.4774 45.299 52.7165 45.2433 52.9043C45.1643 53.1691 45.0902 53.4351 45.0201 53.7022C44.8864 54.2131 44.7645 54.7273 44.6591 55.2448C44.4345 56.3463 44.2823 57.4623 44.2001 58.5835C44.1222 59.6506 43.9188 60.9669 44.4844 61.9343C44.8042 62.481 45.2711 62.9506 45.6798 63.4317C46.0551 63.8739 46.4309 64.316 46.8067 64.758C47.5291 65.6086 48.2517 66.4592 48.9741 67.3097C48.447 68.6571 47.9675 70.0229 47.542 71.4058C47.3348 72.0793 47.1353 72.7561 46.956 73.4377C46.7713 74.1393 46.6696 74.8252 47.025 75.4984C47.3632 76.1382 47.9311 76.6515 48.4163 77.1798C48.9065 77.7137 49.3971 78.2465 49.8904 78.7775C50.3267 79.247 50.7048 79.6373 50.6842 80.3094C50.664 80.9682 50.5702 81.6313 50.4676 82.2815C50.3744 82.87 50.2707 83.4504 50.1829 84.0319C50.0718 84.7675 49.9867 85.5048 49.9868 86.2622L49.9871 86.2728C49.7887 86.3378 49.5912 86.4062 49.3937 86.4796C48.7296 86.7263 48.069 86.9797 47.4115 87.2424C46.7542 87.5057 46.0971 87.7682 45.4404 88.0311C45.112 88.1626 44.7834 88.2941 44.4549 88.4252L44.3855 88.4523C44.6186 87.0425 44.7967 85.6277 44.9595 84.2056C45.0455 83.4544 45.082 82.673 44.7851 81.9605C44.4758 81.2187 43.868 80.6066 43.3673 79.99C42.8866 79.3974 42.406 78.8047 41.9251 78.2126C41.4635 77.6432 40.9163 77.0852 40.5362 76.4576C40.1499 75.8194 40.3436 75.1296 40.4792 74.4472C40.5289 74.1973 40.5797 73.9475 40.6302 73.6976C40.7334 73.1876 40.8365 72.6775 40.9324 72.1664C41.0679 71.4455 41.2396 70.7049 41.291 69.9725C41.3206 69.5493 41.3049 69.0899 41.1255 68.6978C40.9468 68.3074 40.6933 67.9396 40.4698 67.5737C39.6761 66.2737 38.8435 64.9971 38.0627 63.6888C37.6284 62.9612 37.1377 62.279 36.665 61.579C36.8192 60.6936 36.9545 59.8029 37.1383 58.9239C37.3639 57.8434 37.5764 56.7651 37.7084 55.6683C37.8128 54.8005 37.3477 53.9515 36.9573 53.2031C36.0192 51.4054 34.8776 49.692 33.7075 48.0334C33.7481 47.4392 33.802 46.8464 33.8806 46.2554C33.9825 45.4919 34.2189 44.7301 34.4259 43.989C34.6239 43.2792 34.8377 42.5731 35.0722 41.874C35.2968 41.2041 35.6585 40.5103 35.6449 39.7919C35.6284 38.9222 34.979 38.1865 34.5205 37.4945C33.9935 36.6986 33.4675 35.9018 32.9354 35.1096C32.441 34.3739 31.8124 33.6272 31.4587 32.812C31.397 32.6696 31.4032 32.4374 31.3754 32.6922C31.3795 32.6534 31.3763 32.6129 31.3807 32.5735C31.3965 32.4389 31.4095 32.3046 31.4291 32.1707C31.7208 30.1797 32.2445 28.1898 32.836 26.2689C32.9796 25.8023 33.3346 25.2002 33.0248 24.7515C32.6926 24.2704 32.2824 23.8288 31.901 23.3859C31.1243 22.4846 30.3282 21.6011 29.5434 20.7069C29.4121 20.5572 29.2798 20.4064 29.1578 20.2483C29.1333 20.2161 29.1097 20.1827 29.0854 20.1501L29.0834 20.1456C29.1135 20.1299 29.1336 19.8136 29.1571 19.7073C29.2039 19.4997 29.2714 19.2945 29.3253 19.0886C29.4272 18.7017 29.5222 18.3125 29.6157 17.9234C29.9804 16.3992 30.3463 14.8876 30.9907 13.4516C31.071 13.272 31.0399 12.9812 30.8924 12.8401C29.6919 11.6919 28.9371 10.1939 27.8827 8.93066C28.3559 8.7471 28.8171 8.53475 29.2826 8.33175C29.85 8.08376 30.4182 7.83846 30.9868 7.59335C31.5568 7.34769 32.1141 7.07596 32.6734 6.80724C32.9893 6.65539 33.3101 6.4947 33.6179 6.31336L33.6177 6.31327ZM39.8831 31.3047L39.8857 31.304L39.8793 31.3303C39.8811 31.3222 39.8821 31.3134 39.8831 31.3047V31.3047ZM47.255 11.329C46.9726 11.2795 46.6897 11.2301 46.4072 11.1826C45.5708 11.0413 44.7301 10.9419 43.8874 10.8478C43.0464 10.7533 42.207 10.6719 41.3625 10.62C40.9327 10.5935 40.5033 10.5823 40.0733 10.5729C39.7008 10.5645 39.3256 10.4939 38.9533 10.486C38.8845 10.4046 38.8184 10.3271 38.762 10.255C38.5593 9.99302 38.355 9.7317 38.1499 9.47176C37.735 8.9461 37.3158 8.42378 36.8931 7.90449C36.4011 7.2997 35.9041 6.69867 35.4037 6.10006C35.7959 6.16942 36.1877 6.23759 36.5806 6.30181C37.3807 6.43316 38.1908 6.51096 38.9956 6.60626C39.8013 6.70158 40.6064 6.80986 41.4143 6.87843C42.0449 6.93196 42.6996 7.03338 43.3381 6.99828C43.3662 7.04824 43.4019 7.09787 43.4462 7.14606C44.3386 8.12353 45.2309 9.10047 46.1233 10.0779C46.5028 10.4931 46.8791 10.911 47.2549 11.3291L47.255 11.329ZM46.6055 17.5699C45.8933 17.4675 45.1629 17.4638 44.4472 17.4326C43.5792 17.3949 42.7122 17.3515 41.8448 17.3028C40.9764 17.2541 40.1076 17.2099 39.2391 17.1579C38.8046 17.1319 38.3699 17.1041 37.9354 17.0758L37.3485 17.036C37.6936 16.3379 38.0234 15.6324 38.3209 14.9129C38.5683 14.3143 38.7934 13.7071 38.9833 13.088C39.0645 12.8247 39.1374 12.5593 39.2041 12.2921C39.2502 12.1081 39.325 11.8886 39.3688 11.672C39.3902 11.6718 39.4116 11.6716 39.4329 11.6725C39.6325 11.6771 39.8314 11.7055 40.0298 11.7283C40.4562 11.7767 40.8815 11.8262 41.3085 11.8671C42.1361 11.947 42.9637 12.0127 43.7916 12.0855C44.622 12.1583 45.4501 12.2428 46.2812 12.3041C46.7114 12.3359 47.1419 12.3694 47.5718 12.4061C47.703 12.4171 47.8321 12.4254 47.9614 12.4299C47.9631 12.4973 47.9563 12.569 47.9402 12.6458C47.7116 13.7218 47.3485 14.785 47.065 15.8481C46.9143 16.4139 46.7633 16.9802 46.6126 17.546L46.6057 17.57L46.6055 17.5699ZM49.8951 22.3953C48.4803 22.4035 47.066 22.4929 45.6524 22.5401C44.8406 22.5673 44.0299 22.6091 43.2183 22.6343C42.5577 22.6548 41.8832 22.6342 41.2208 22.6784C40.9642 22.119 40.5249 21.6139 40.143 21.157C39.3362 20.1911 38.4719 19.2519 37.5638 18.3667C37.656 18.3689 37.7463 18.3711 37.8332 18.3757C38.2681 18.3995 38.7033 18.4217 39.1385 18.4429C40.0084 18.4851 40.8783 18.5239 41.7487 18.5474C42.6334 18.5714 43.518 18.5897 44.4029 18.6019C45.0696 18.6118 45.7504 18.6389 46.42 18.5846C46.4794 18.859 46.6939 19.0413 46.8903 19.2462C47.6435 20.033 48.397 20.8194 49.15 21.6058C49.3629 21.8282 49.5816 22.0471 49.7882 22.2762C49.8229 22.315 49.859 22.3546 49.8951 22.3953V22.3953ZM48.9201 29.1688C47.4947 29.3464 46.0711 29.5392 44.6407 29.6781C43.7958 29.7603 42.9495 29.8339 42.1028 29.8998C41.4191 29.953 40.7211 30.0342 40.0321 30.0239C40.2012 28.8796 40.4258 27.7343 40.6836 26.6122C40.6707 26.6744 40.7514 26.3661 40.7713 26.2999C40.8199 26.1347 40.872 25.971 40.923 25.8067C41.0232 25.4874 41.1224 25.1679 41.2056 24.8434C41.2859 24.5289 41.3752 24.184 41.41 23.8403C42.0402 23.8482 42.6782 23.7987 43.3019 23.7764C44.1124 23.7473 44.9243 23.7206 45.7331 23.6645C47.208 23.5621 48.6918 23.4543 50.1501 23.2033C50.0468 24.2101 49.8743 25.2136 49.6844 26.2063C49.5648 26.8314 49.4107 27.463 49.2918 28.0347C49.2182 28.3876 49.1138 28.7864 48.9202 29.1687L48.9201 29.1688ZM53.1466 35.1926C52.932 35.197 52.7165 35.2247 52.503 35.2535C52.094 35.3079 51.6846 35.3625 51.2754 35.4175C50.4716 35.5244 49.6696 35.6437 48.8671 35.76C47.4069 35.9724 45.9488 36.1984 44.4836 36.3755C44.0684 35.7677 43.5096 35.2308 43.0314 34.6799C42.4751 34.0402 41.9221 33.3975 41.3629 32.76C41.0659 32.4216 40.7662 32.085 40.4677 31.7477C40.3448 31.6085 40.2218 31.4697 40.099 31.3304C40.0832 31.3125 40.0674 31.2946 40.0512 31.2769C40.7855 31.162 41.5368 31.1259 42.2742 31.0443C43.1029 30.9531 43.9288 30.8456 44.7537 30.7216C46.1801 30.5065 47.6068 30.2713 49.0136 29.9519C49.4637 30.4032 49.9006 30.8665 50.3204 31.3461C51.1746 32.3219 51.9829 33.3559 52.6809 34.4492C52.8299 34.6827 53.0082 34.9305 53.1466 35.1926V35.1926ZM51.8356 43.3833C48.9538 43.659 46.1022 44.1817 43.281 44.8259C43.5427 43.7981 43.7933 42.7684 44.0569 41.7394C44.2907 40.8281 44.5158 39.9144 44.7327 38.9989C44.8433 38.5317 44.9457 38.0813 44.9316 37.6374C46.297 37.3761 47.6703 37.1547 49.0411 36.9209C49.8406 36.7846 50.6405 36.6506 51.4384 36.5053C51.8449 36.431 52.251 36.3569 52.6575 36.2826C52.8935 36.2396 53.1319 36.1955 53.3588 36.1219C53.318 36.4653 53.2144 36.8008 53.129 37.1347C52.7226 38.7211 52.3145 40.3133 52.0149 41.9238C51.93 42.3796 51.8044 42.9022 51.8356 43.3834L51.8356 43.3833ZM53.3406 43.33L53.3357 43.3147L53.3362 43.3135L53.3406 43.33ZM52.4352 44.6803C53.167 45.7791 53.9679 46.8339 54.7501 47.8969C55.1588 48.4526 55.5681 49.0075 55.9705 49.5679C56.0351 49.6584 56.0996 49.7488 56.1637 49.8394C56.0104 49.8446 55.8568 49.8533 55.704 49.8586C55.242 49.875 54.7809 49.8954 54.3199 49.9304C53.4158 49.9991 52.5125 50.0794 51.6101 50.1718C50.7115 50.2636 49.8151 50.4079 48.9223 50.5448C48.4698 50.6145 48.0071 50.6478 47.5587 50.7376C47.3265 50.7838 47.1133 50.8153 46.8759 50.8268C46.6748 50.8364 46.4677 50.7962 46.2681 50.8178C46.0964 50.6045 45.9105 50.4003 45.7388 50.1959C44.7566 49.0275 43.7754 47.8577 42.7871 46.694C42.8264 46.553 42.8651 46.4117 42.9033 46.2702C45.9284 45.447 48.9904 44.7718 52.0497 44.0896C52.1657 44.2981 52.3121 44.4949 52.4353 44.6802L52.4352 44.6803Z" fill="#E43D4C"/>
<path d="M43.3276 71.7758C43.153 71.3824 43.7647 71.1123 43.9396 71.5062C44.1143 71.8996 43.5025 72.1697 43.3276 71.7758Z" fill="#E43D4C"/>
<path d="M41.5568 59.109C41.7315 59.5024 41.1197 59.7725 40.9448 59.3786C40.7701 58.9852 41.3819 58.7151 41.5568 59.109Z" fill="#E43D4C"/>
<path d="M40.4396 40.9906C40.6143 41.3839 40.0025 41.654 39.8276 41.2601C39.653 40.8668 40.2647 40.5966 40.4396 40.9906Z" fill="#E43D4C"/>
<path d="M35.7056 23.2956L35.7256 23.3404C35.9002 23.7338 35.2885 24.004 35.1136 23.6099L35.0936 23.5651C34.9191 23.1718 35.5308 22.9016 35.7056 23.2956Z" fill="#E43D4C"/>
<path d="M33.3048 13.2203C33.2264 13.2549 33.1288 13.257 33.0488 13.2261C33.0067 13.2116 32.9711 13.188 32.9419 13.1556C32.9066 13.1277 32.8804 13.0923 32.8633 13.0495C32.8317 12.9688 32.8213 12.8754 32.857 12.7939C32.8925 12.7126 32.9507 12.6456 33.0336 12.6091L33.1152 12.5732C33.1936 12.5387 33.2912 12.5364 33.3713 12.5674C33.4134 12.5819 33.4491 12.6054 33.4782 12.6379C33.5135 12.6659 33.5398 12.7012 33.5569 12.744C33.5884 12.8246 33.5989 12.918 33.5632 12.9996C33.5277 13.0809 33.4695 13.1479 33.3866 13.1844L33.305 13.2203L33.3048 13.2203Z" fill="#E43D4C"/>
<path d="M31.9201 20.4808C32.0947 20.8742 31.483 21.1443 31.3081 20.7504C31.1334 20.357 31.7452 20.0869 31.9201 20.4808Z" fill="#E43D4C"/>
<path d="M44.9046 26.8204C44.8262 26.8549 44.7286 26.8571 44.6485 26.8262C44.6064 26.8117 44.5707 26.7882 44.5416 26.7557C44.5062 26.7278 44.48 26.6924 44.4629 26.6496C44.4314 26.5689 44.421 26.4755 44.4566 26.394C44.4921 26.3127 44.5503 26.2457 44.6332 26.2091L44.7148 26.1732C44.7933 26.1386 44.8909 26.1364 44.9709 26.1675C45.013 26.182 45.0487 26.2055 45.0779 26.2379C45.1132 26.2659 45.1394 26.3012 45.1565 26.3441C45.188 26.4247 45.1985 26.5181 45.1628 26.5997C45.1273 26.6809 45.0691 26.748 44.9862 26.7845L44.9046 26.8204Z" fill="#E43D4C"/>
<path d="M48.1792 24.9149C48.0045 24.5216 48.6162 24.2514 48.7911 24.6454C48.9658 25.0388 48.3541 25.309 48.1792 24.9149Z" fill="#E43D4C"/>
<path d="M45.148 14.3288C45.0665 14.2932 44.9991 14.2351 44.9623 14.1522L44.9262 14.0707C44.8914 13.9923 44.8889 13.8949 44.9199 13.8151C44.9344 13.7731 44.9578 13.7376 44.9903 13.7086C45.0182 13.6734 45.0536 13.6473 45.0965 13.6303C45.1772 13.599 45.2708 13.5888 45.3526 13.6245C45.4342 13.6601 45.5014 13.7184 45.5382 13.8011L45.5744 13.8826C45.6091 13.961 45.6116 14.0584 45.5806 14.1382C45.5662 14.1802 45.5427 14.2157 45.5102 14.2448C45.4822 14.28 45.4469 14.306 45.404 14.323C45.3233 14.3543 45.2298 14.3644 45.1479 14.3287L45.148 14.3288Z" fill="#E43D4C"/>
<path d="M46.4474 42.4371C46.6221 42.8305 46.0103 43.1006 45.8354 42.7067C45.6608 42.3133 46.2725 42.0432 46.4474 42.4371Z" fill="#E43D4C"/>
<path d="M48.3315 38.8793C48.1569 38.4859 48.7686 38.2158 48.9435 38.6098C49.1181 39.0032 48.5064 39.2733 48.3315 38.8793Z" fill="#E43D4C"/>
<path d="M49.9747 41.3713C50.1494 41.7647 49.5377 42.0348 49.3628 41.6408C49.1881 41.2474 49.7998 40.9773 49.9747 41.3713Z" fill="#E43D4C"/>
<path d="M49.6675 56.6095C49.4929 56.2162 50.1046 55.9461 50.2794 56.34C50.4541 56.7334 49.8424 57.0036 49.6675 56.6095Z" fill="#E43D4C"/>
<path d="M56.2698 69.5596C56.1913 69.5941 56.0938 69.5963 56.0136 69.5654C55.9715 69.5509 55.9359 69.5273 55.9067 69.4949C55.8714 69.4669 55.8452 69.4316 55.8281 69.3888C55.7965 69.3082 55.7861 69.2148 55.8218 69.1332C55.8573 69.0519 55.9156 68.9849 55.9984 68.9484L56.08 68.9125C56.1585 68.878 56.2561 68.8757 56.3362 68.9067C56.3783 68.9212 56.4139 68.9447 56.4431 68.9772C56.4784 69.0051 56.5046 69.0405 56.5217 69.0833C56.5533 69.1639 56.5637 69.2573 56.5281 69.3389C56.4926 69.4202 56.4343 69.4872 56.3514 69.5238L56.2698 69.5597L56.2698 69.5596Z" fill="#E43D4C"/>
<path d="M53.6579 71.2751C53.6933 71.303 53.7195 71.3384 53.7366 71.3812C53.7681 71.4619 53.7785 71.5553 53.7429 71.6368C53.7074 71.7181 53.6492 71.7851 53.5663 71.8217L53.4847 71.8576C53.4062 71.8922 53.3086 71.8944 53.2286 71.8633C53.1865 71.8488 53.1508 71.8253 53.1216 71.7929C53.0863 71.7649 53.0601 71.7296 53.043 71.6867C53.0115 71.6061 53.001 71.5127 53.0367 71.4311C53.0722 71.3499 53.1304 71.2828 53.2133 71.2463L53.2949 71.2104C53.3733 71.1759 53.4709 71.1736 53.551 71.2046C53.5931 71.2191 53.6288 71.2426 53.6579 71.2751Z" fill="#E43D4C"/>
<path d="M51.2319 69.3661C51.0574 68.9728 51.6691 68.7027 51.8439 69.0967C52.0185 69.49 51.4068 69.7601 51.2319 69.3661Z" fill="#E43D4C"/>
<path d="M53.4175 84.1547C53.3359 84.1191 53.2687 84.0609 53.2319 83.9781L53.1957 83.8966C53.161 83.8182 53.1585 83.7209 53.1894 83.641C53.2038 83.599 53.2274 83.5635 53.2598 83.5344C53.2877 83.4992 53.3231 83.4732 53.366 83.4562C53.4467 83.4249 53.5403 83.4147 53.6221 83.4505C53.7036 83.4861 53.7709 83.5443 53.8077 83.6271L53.8439 83.7086C53.8787 83.787 53.8811 83.8844 53.8502 83.9642C53.8357 84.0062 53.8122 84.0417 53.7798 84.0707C53.7518 84.1059 53.7164 84.132 53.6736 84.149C53.5928 84.1803 53.4993 84.1905 53.4175 84.1547V84.1547Z" fill="#E43D4C"/>
<path d="M58.0327 82.9021C57.9512 82.8665 57.8839 82.8083 57.8471 82.7255L57.811 82.644C57.7762 82.5657 57.7737 82.4683 57.8046 82.3884C57.8191 82.3464 57.8426 82.3109 57.875 82.2819C57.9029 82.2467 57.9384 82.2206 57.9812 82.2036C58.062 82.1723 58.1555 82.1621 58.2373 82.1979C58.3189 82.2335 58.3861 82.2918 58.4229 82.3745L58.459 82.456C58.4938 82.5344 58.4963 82.6318 58.4654 82.7116C58.4509 82.7536 58.4275 82.7892 58.395 82.8182C58.367 82.8534 58.3317 82.8794 58.2888 82.8964C58.2081 82.9277 58.1145 82.9379 58.0327 82.9022L58.0327 82.9021Z" fill="#E43D4C"/>
<path d="M56.1772 85.1172C56.0026 84.7239 56.6144 84.4537 56.7893 84.8477C56.9638 85.241 56.3521 85.5111 56.1772 85.1172V85.1172Z" fill="#E43D4C"/>
<path d="M52.728 81.0825C52.5535 80.6892 53.1652 80.419 53.34 80.8129C53.5146 81.2063 52.9029 81.4764 52.728 81.0825Z" fill="#E43D4C"/>
<path d="M38.9223 61.5918C38.9657 61.5874 39.008 61.594 39.0489 61.6116C39.1283 61.6463 39.202 61.7053 39.2344 61.7882C39.2668 61.8709 39.2733 61.9595 39.2408 62.0439L39.1953 62.1613C39.1645 62.2411 39.0971 62.3115 39.0187 62.3461C38.9773 62.3663 38.9341 62.3748 38.8892 62.3717C38.8457 62.3761 38.8036 62.3696 38.7626 62.3519C38.6832 62.3172 38.6095 62.2583 38.577 62.1752C38.5446 62.0925 38.5381 62.0039 38.5707 61.9196L38.6161 61.8022C38.647 61.7223 38.7142 61.652 38.7927 61.6173C38.8341 61.5972 38.8773 61.5886 38.9223 61.5917L38.9223 61.5918Z" fill="#E43D4C"/>
<path d="M41.1041 36.995L41.124 37.0399C41.2986 37.4332 40.687 37.7034 40.512 37.3095L40.4921 37.2646C40.3175 36.8712 40.9291 36.6011 41.1041 36.9951L41.1041 36.995Z" fill="#E43D4C"/>
<path d="M53.3693 88.7899C53.5439 89.1832 52.9322 89.4534 52.7573 89.0594C52.5827 88.666 53.1944 88.3959 53.3693 88.7899Z" fill="#E43D4C"/>
<path d="M49.6076 88.8874C49.7822 89.2807 49.1705 89.5509 48.9956 89.1569C48.821 88.7636 49.4327 88.4935 49.6076 88.8874Z" fill="#E43D4C"/>
<path d="M45.307 79.0473C45.3504 79.0429 45.3926 79.0495 45.4336 79.0671C45.513 79.1018 45.5867 79.1608 45.6192 79.2437C45.6516 79.3264 45.6581 79.415 45.6255 79.4993L45.5801 79.6168C45.5492 79.6966 45.4819 79.767 45.4035 79.8016C45.3621 79.8217 45.3189 79.8302 45.274 79.8272C45.2305 79.8315 45.1884 79.825 45.1475 79.8074C45.068 79.7727 44.9943 79.7138 44.9619 79.6307C44.9296 79.548 44.923 79.4594 44.9556 79.3751L45.001 79.2577C45.0319 79.1778 45.0993 79.1074 45.1777 79.0728C45.2191 79.0527 45.2622 79.0442 45.3072 79.0472L45.307 79.0473Z" fill="#E43D4C"/>
</g>
<defs>
<clipPath id="clip0_660_13317">
<rect width="78.3452" height="61.8515" fill="white" transform="translate(86.9355 23.4493) rotate(112.279)"/>
</clipPath>
</defs>
</svg>
