<svg width="137" height="156" viewBox="0 0 137 156" fill="none" xmlns="http://www.w3.org/2000/svg">
<path d="M76.6175 61.4945L76.641 61.5124L76.618 61.4966L76.6175 61.4945Z" fill="#E43D4C"/>
<path d="M20.0377 55.4147C20.0576 55.4211 20.0718 55.4272 20.0728 55.4302C20.0752 55.4368 20.0561 55.4256 20.0377 55.4147Z" fill="#E43D4C"/>
<path d="M46.1076 59.2838C46.1016 59.2711 46.0939 59.2583 46.0863 59.2455L46.0892 59.2419L46.1076 59.2838V59.2838Z" fill="#E43D4C"/>
<path d="M37.9591 48.6246L37.9771 48.6231L37.9965 48.643L38.0004 48.6485L38.0034 48.6493C38.0158 48.6629 38.0195 48.6642 38.0108 48.6533C38.0258 48.6605 38.0391 48.6678 38.0541 48.6734C38.1662 48.7145 38.0925 48.7011 38.0214 48.678C37.9608 48.658 37.9038 48.6313 37.9594 48.6243L37.9591 48.6246Z" fill="#E43D4C"/>
<path d="M76.8755 61.5871C76.8834 61.5914 76.9265 61.6105 77.0224 61.6515C76.9352 61.6153 76.8452 61.5827 76.7588 61.5435C76.6988 61.516 76.6461 61.4892 76.6036 61.4661L76.5816 61.4275C76.503 61.2952 76.4112 61.1695 76.3306 61.0379C76.1219 60.6954 75.9296 60.342 75.7422 59.9879C74.6883 57.994 73.7701 55.9257 72.8592 53.863C72.5205 53.0976 72.1357 52.1848 71.7622 51.3504C71.4061 50.554 70.9606 49.8149 70.2593 49.2737C69.5485 48.7247 68.6815 48.4499 67.8406 48.1609C64.6936 47.0796 61.4854 46.2475 58.1936 45.7637C57.9343 44.7821 57.4967 43.808 57.0913 42.9106C56.0695 40.6439 54.965 38.29 53.5637 36.228C53.3757 35.9519 53.1787 35.6372 52.9349 35.4109C52.1703 34.7017 50.9989 34.4993 50.0095 34.3363C47.8288 33.9772 45.6476 33.6224 43.4661 33.2665C42.7772 31.5579 42.094 29.8474 41.3909 28.1441C40.9942 27.1835 40.5969 26.2226 40.1913 25.2657C39.8068 24.36 39.385 23.5415 38.5137 23.013C37.6888 22.5132 36.6947 22.4001 35.7619 22.2378C34.6993 22.0524 33.6381 21.8633 32.5776 21.6694C30.5448 21.2986 28.5117 20.9269 26.479 20.5562C25.8234 20.436 25.336 20.7766 25.0971 21.2412C23.9085 21.5937 22.8172 22.3012 21.7352 22.8846C20.5231 23.5387 19.3426 24.2513 18.1528 24.945C16.9633 25.6381 15.7551 26.3071 14.5982 27.0523C13.4183 27.8116 12.2549 28.5973 11.0789 29.3631C10.6735 29.6278 10.5763 30.0245 10.6723 30.3712C10.0647 31.0747 9.54584 31.8745 9.06074 32.6523C8.50149 33.5465 7.9289 34.4318 7.39688 35.3425C6.86623 36.2505 6.3367 37.1582 5.8108 38.0689C5.22375 39.0849 4.62128 40.091 4.16275 41.1734C4.04173 41.4591 4.00682 41.7485 4.06057 42.0145L4.05086 42.048C3.9379 42.5508 4.26219 43.2086 4.81778 43.2813C7.89759 43.686 10.7348 45.0668 13.7774 45.6228C14.2325 47.5582 14.944 49.3893 15.7439 51.215C16.1363 52.1122 16.538 53.0058 16.9177 53.9088C17.3146 54.8533 17.609 55.9201 18.244 56.7372C18.9044 57.588 19.8685 57.7449 20.8686 57.9653C23.5513 58.5566 26.2832 58.8999 28.9579 59.5289C29.129 60.0301 29.3146 60.5263 29.5058 61.0205C30.2541 62.9499 31.08 64.851 31.9352 66.7351C32.5614 68.115 33.1342 69.5641 33.916 70.8666C34.4357 71.7331 35.3098 72.1649 36.2427 72.4943C37.8271 73.0537 39.4525 73.5175 41.0524 74.0329C42.677 74.5565 44.3093 75.0584 45.9377 75.5704C46.6229 75.786 47.4618 75.9481 47.839 76.6242C48.0901 77.0751 48.2113 77.6025 48.379 78.0891C49.1583 80.3481 50.0765 82.5646 51.0783 84.7326C51.5847 85.8286 52.0716 86.9364 52.5941 88.0249C52.9529 88.7711 53.3545 89.817 54.1968 90.0973C56.8073 90.9638 59.4443 91.7266 62.0095 92.7294C63.4511 93.2923 64.9791 93.8632 66.2607 94.7458L66.2914 94.7668L66.3184 94.79C66.3659 94.8295 66.4132 94.8691 66.4602 94.9093C66.5167 94.9589 66.5702 95.019 66.5913 95.0417C66.6412 95.1161 66.6886 95.192 66.7342 95.2693C67.024 95.7645 67.2691 96.2878 67.5344 96.7963C68.3226 98.3124 69.1898 99.7879 69.952 101.317C70.4757 102.367 70.9372 103.48 71.5276 104.495C71.7034 104.798 71.9546 104.94 72.2651 105.065L72.3161 105.088C72.3939 105.121 72.4736 105.151 72.5525 105.181C72.7587 105.263 72.9656 105.346 73.1722 105.427C74.5992 105.993 76.0321 106.493 77.493 106.968C79.144 107.503 80.7703 108.128 82.3972 108.731C83.4572 109.124 84.4165 109.388 85.4519 109.926C86.2566 110.344 86.5394 111.416 86.9299 112.178C87.4346 113.162 87.9499 114.138 88.4693 115.113C88.759 115.657 89.0483 116.201 89.3415 116.743C90.0466 118.045 90.6692 119.578 91.9291 120.45C93.2459 121.361 95.0278 121.561 96.555 121.922C98.2065 122.313 99.858 122.704 101.51 123.094C102.301 123.281 103.178 123.398 103.917 123.751C104.552 124.054 104.94 124.616 105.285 125.206C106.936 128.028 108.604 130.822 110.455 133.518C110.503 134.046 111.064 134.45 111.596 134.45C111.728 134.602 111.904 134.717 112.082 134.761C112.818 134.943 113.689 134.291 114.339 133.969C114.914 133.683 115.492 133.405 116.059 133.103C117.151 132.524 118.245 131.945 119.33 131.353C121.35 130.249 123.281 128.982 125.086 127.559C125.501 127.666 125.909 127.461 126.14 127.099C126.227 126.961 126.38 126.838 126.468 126.683C126.54 126.555 126.6 126.418 126.666 126.287C126.808 126.008 126.953 125.73 127.097 125.451C127.353 124.951 127.595 124.442 127.85 123.941C128.176 123.296 128.517 122.66 128.859 122.024C129.032 121.704 129.204 121.383 129.376 121.063C130.455 119.054 131.503 117.027 132.471 114.962C132.675 114.528 132.46 114.172 132.141 114.042C132.162 113.953 132.167 113.857 132.148 113.759C131.716 111.466 130.99 109.308 130.25 107.1C129.883 106.004 129.518 104.909 129.128 103.821C128.789 102.875 128.505 101.817 127.706 101.142C126.818 100.392 125.618 100.153 124.528 99.8357C123.409 99.5099 122.288 99.1885 121.171 98.8537C119.133 98.2433 117.095 97.6329 115.057 97.0214C113.024 92.7299 111.429 88.2576 110.342 83.6326C110.242 83.2049 109.846 82.8729 109.431 82.7728C104.88 81.6722 100.452 79.8252 96.152 77.9837C94.8659 75.1592 93.5734 72.3353 92.2302 69.5365C91.7109 68.455 91.2442 67.2721 90.5761 66.2699C89.9639 65.3499 88.5795 65.1411 87.5898 64.8367C84.1487 63.7773 80.634 62.9157 77.2346 61.7248C77.166 61.7004 76.8986 61.5931 76.8751 61.5871L76.8755 61.5871ZM93.9177 79.157C93.6107 79.532 93.3404 79.9407 93.0526 80.3295C92.6077 80.9327 92.1606 81.5338 91.7107 82.1335C90.8122 83.3336 89.9053 84.5273 88.9895 85.7153C88.0454 86.9404 87.073 88.145 86.158 89.3929C85.7629 89.9319 85.3757 90.4786 84.9632 91.0037C84.8016 91.2105 84.6319 91.4136 84.4379 91.5899C84.3454 91.6739 84.3325 91.6437 84.1976 91.7626L84.1568 91.7835C84.1179 91.7839 84.0792 91.7835 84.0407 91.7815C83.8518 91.7797 83.6797 91.8342 83.5311 91.9258C83.0102 91.2284 82.5412 90.4758 82.0787 89.7567C80.77 87.7208 79.6036 85.5779 78.6622 83.3471C78.2171 82.2921 77.9245 81.0531 77.186 80.1574C77.096 80.049 77.0002 79.9497 76.9002 79.8583C76.9524 79.7738 77.007 79.6915 77.0669 79.6138C77.3118 79.2922 77.5669 79.0311 77.8625 78.7576C78.4325 78.2284 78.9443 77.634 79.5052 77.0946C80.5957 76.0447 81.7163 75.0282 82.8145 73.9867C83.9122 72.944 85.0133 71.905 86.1333 70.8847C86.7113 70.3582 87.2823 69.8243 87.8535 69.2897C88.1372 69.0236 88.4394 68.7691 88.7118 68.4908C88.7499 68.4511 88.788 68.4099 88.8254 68.3682C89.1909 69.0768 89.5345 69.7967 89.8788 70.516C90.876 72.6022 91.856 74.6963 92.8283 76.7949C93.1729 77.5386 93.5164 78.2825 93.8589 79.0268L93.9179 79.157L93.9177 79.157ZM106.861 84.6604C106.809 84.7073 106.759 84.7539 106.708 84.7995C106.15 85.3024 105.585 85.7986 105.044 86.3184C103.979 87.3401 102.913 88.3595 101.845 89.3777C100.777 90.3953 99.7213 91.4245 98.6683 92.4579C98.14 92.977 97.544 93.4748 97.0801 94.0514C96.855 94.3321 96.6608 94.6031 96.3958 94.8492C96.1182 95.1075 95.7619 95.3075 95.56 95.6277C92.9454 95.0744 90.3313 94.5204 87.7173 93.9663C86.942 93.8017 86.0266 93.729 85.2501 93.431C85.5598 93.2513 85.8574 93.0358 86.134 92.7571C86.6332 92.2549 87.0557 91.6689 87.4988 91.118C88.5002 89.8731 89.4351 88.5793 90.3725 87.2858C91.2817 86.0313 92.1815 84.77 93.0729 83.5024C93.5331 82.8489 93.9905 82.1932 94.4458 81.5361C94.7151 81.1466 95.0071 80.7644 95.2626 80.3622C95.6921 80.5423 96.136 80.6991 96.5594 80.8714C97.7808 81.3688 99.0064 81.8539 100.238 82.325C102.417 83.1585 104.616 83.9971 106.861 84.6604L106.861 84.6604ZM113.155 98.6252C112.934 98.7549 112.714 98.8876 112.492 99.0179C111.898 99.3687 111.302 99.7155 110.724 100.091C109.567 100.842 108.415 101.6 107.27 102.366C106.104 103.146 104.941 103.926 103.809 104.753C103.253 105.16 102.698 105.569 102.145 105.979C101.869 106.183 101.594 106.392 101.317 106.595C101.289 106.615 101.261 106.636 101.234 106.658C100.811 105.603 100.405 104.543 100.019 103.475C99.2255 101.283 98.5119 99.063 97.8738 96.8203C97.8261 96.6505 97.7392 96.4921 97.6262 96.355C97.6446 96.3357 97.6616 96.3157 97.6809 96.2961C97.9077 96.0661 98.1314 95.8827 98.3913 95.6932C99.0278 95.2302 99.5691 94.6259 100.133 94.078C101.208 93.0316 102.276 91.9799 103.328 90.9107C104.38 89.8422 105.43 88.7717 106.477 87.7C107.001 87.1638 107.5 86.6037 108.005 86.0496C108.1 85.9454 108.198 85.8394 108.297 85.7313C108.914 88.0993 109.659 90.4318 110.534 92.7179C110.999 93.9299 111.501 95.1255 112.029 96.3116C112.315 96.9534 112.61 97.5918 112.916 98.2243C112.991 98.3804 113.07 98.5113 113.155 98.6253L113.155 98.6252ZM125.399 102.545C125.139 102.668 124.88 102.793 124.628 102.935C123.975 103.299 123.323 103.662 122.67 104.023C121.318 104.771 119.956 105.499 118.61 106.256C117.264 107.013 115.903 107.748 114.565 108.519C113.918 108.894 113.269 109.265 112.62 109.636C112.273 109.835 111.927 110.032 111.58 110.229C111.358 110.356 111.128 110.462 110.909 110.586C110.622 110.486 110.325 110.407 110.019 110.343C108.826 110.096 107.617 109.914 106.418 109.708C105.275 109.511 104.069 109.399 102.953 109.084C102.51 108.959 102.212 108.7 101.988 108.374L102.029 108.343C102.167 108.239 102.304 108.137 102.444 108.035C102.722 107.834 103.001 107.632 103.28 107.432C103.839 107.03 104.399 106.631 104.96 106.233C106.086 105.435 107.187 104.604 108.302 103.791C109.439 102.963 110.581 102.142 111.73 101.329C112.295 100.929 112.841 100.499 113.395 100.082C113.716 99.8406 114.04 99.6043 114.356 99.3572C114.419 99.3771 114.484 99.3958 114.552 99.4155C117.268 100.192 119.986 100.958 122.696 101.757C123.384 101.959 124.073 102.161 124.761 102.365C124.958 102.422 125.181 102.476 125.399 102.545L125.399 102.545ZM130.61 113.567C130.228 113.689 129.848 113.816 129.478 113.99C128.885 114.269 128.303 114.57 127.715 114.861C126.541 115.44 125.396 116.072 124.245 116.695C122.21 117.799 120.224 118.997 118.253 120.209C118.01 120.358 117.767 120.506 117.525 120.656C117.429 120.449 117.334 120.243 117.239 120.036C116.447 118.305 115.708 116.55 114.833 114.857C114.327 113.879 113.789 112.9 113.084 112.048C113.02 111.973 112.955 111.9 112.888 111.83C113.154 111.687 113.421 111.545 113.687 111.402C114.346 111.048 115.004 110.692 115.662 110.335C117.019 109.599 118.35 108.811 119.686 108.036C121.021 107.263 122.333 106.449 123.648 105.642C124.284 105.252 124.92 104.861 125.554 104.469C125.896 104.258 126.214 104.025 126.537 103.786C126.563 103.767 126.589 103.748 126.616 103.729C126.744 104.068 126.838 104.431 126.951 104.739C127.18 105.367 127.419 105.99 127.661 106.612C128.579 108.97 129.442 111.326 130.61 113.566L130.61 113.567ZM113.63 131.992L114.2 130.917C114.751 129.879 115.303 128.841 115.854 127.803C116.405 126.763 116.943 125.719 117.469 124.667C117.893 123.816 118.267 122.961 118.619 122.088C119.509 121.64 120.397 121.186 121.282 120.728C122.629 120.029 123.968 119.315 125.281 118.557C126.391 117.916 127.509 117.289 128.593 116.606C129.146 116.259 129.702 115.915 130.252 115.564C130.347 115.503 130.438 115.439 130.528 115.374C129.452 116.913 128.405 118.478 127.465 120.101C127.171 120.609 126.884 121.122 126.602 121.638C126.351 122.096 126.104 122.556 125.861 123.017C125.587 123.537 125.312 124.059 125.067 124.593C124.946 124.858 124.826 125.123 124.707 125.39C124.621 125.585 124.509 125.789 124.454 125.995C124.417 126.136 124.423 126.3 124.383 126.43C124.376 126.452 124.372 126.473 124.366 126.495C122.337 127.58 120.277 128.604 118.228 129.652C117.104 130.228 115.973 130.787 114.843 131.349C114.433 131.553 114.031 131.771 113.63 131.991L113.63 131.992ZM20.0374 55.4145C20.0571 55.4209 20.0712 55.4269 20.0721 55.4299C20.0745 55.4364 20.0556 55.4253 20.0374 55.4145ZM11.8016 32.0863C15.5014 32.9064 19.1888 33.7852 22.8465 34.7736C24.4302 38.1941 25.1878 41.9495 25.8732 45.6338C25.982 46.22 26.6183 46.5176 27.1436 46.5523C27.3266 46.5647 27.5092 46.5813 27.6924 46.5965L27.7912 46.6053L27.8639 46.6129C27.9763 46.6249 28.0898 46.6368 28.203 46.6491C28.781 46.7125 29.3583 46.7833 29.9351 46.8598C31.2948 47.0397 32.6544 47.2436 34.0017 47.5063C35.1428 47.7294 36.294 47.9717 37.3945 48.3559C37.3738 48.3542 37.7439 48.501 37.8205 48.5408C37.8653 48.5644 37.9118 48.5964 37.9585 48.6244L37.9765 48.6229L37.9958 48.6429L37.9997 48.6484L38.0028 48.6492C38.0152 48.6628 38.0188 48.6641 38.0101 48.6531C38.0251 48.6604 38.0385 48.6676 38.0535 48.6732C38.1655 48.7144 38.0919 48.7009 38.0208 48.6778C38.0817 48.7635 38.1417 48.8511 38.1978 48.9411C38.3126 49.1224 38.4159 49.3103 38.5144 49.5007C38.705 49.8713 38.8588 50.2573 39.0065 50.6466C39.7446 52.5868 40.5417 54.4206 41.4691 56.275C41.9448 57.2251 42.4261 58.1731 42.9333 59.1067C43.2791 59.7425 43.6269 60.5069 44.1518 61.0205C44.7343 61.5911 45.7086 61.5907 46.4672 61.7308C47.4407 61.9118 48.4134 62.0958 49.3881 62.2697C51.4276 62.6328 53.4696 62.9803 55.5071 63.3519C56.3637 63.5082 57.3336 63.5477 57.825 64.3556C58.3072 65.1489 58.6486 66.0495 59.0337 66.8926C59.889 68.7639 60.7104 70.6384 61.4502 72.5581C61.9443 73.8404 62.4467 75.1202 62.9522 76.3992C62.9357 76.7003 63.0364 77.0022 63.2869 77.2444C63.4115 77.5575 63.5351 77.871 63.6589 78.1839C63.9851 79.0037 64.3766 79.2422 65.2208 79.434C65.6621 79.5342 66.1039 79.6348 66.5457 79.7345C67.5618 79.9653 68.5798 80.1861 69.5979 80.4103C70.7038 80.6537 71.8095 80.8972 72.9156 81.1416C73.3576 81.2388 73.8013 81.3318 74.2424 81.4336C74.5583 81.5062 74.9463 81.5431 75.1856 81.7868C75.4253 82.0299 75.5253 82.465 75.6447 82.7753C75.8121 83.2135 75.9876 83.6482 76.1695 84.0803C76.5181 84.9062 76.8858 85.7245 77.2793 86.5301C78.1164 88.2451 79.0658 89.9048 80.115 91.499C81.114 93.0161 82.2018 94.9983 83.9638 95.7154C84.9597 96.1204 86.074 96.2695 87.1218 96.4943C88.0845 96.7014 89.0475 96.9077 90.0106 97.1141C91.8629 97.5117 93.7153 97.9092 95.5676 98.3069C96.2518 100.666 97.0192 103 97.877 105.302C98.2946 106.423 98.7262 107.54 99.1899 108.643C99.6671 109.778 100.24 110.807 101.414 111.345C102.531 111.857 103.827 111.96 105.026 112.17C106.239 112.381 107.45 112.591 108.663 112.795C109.736 112.976 110.649 113.11 111.317 114.036C111.971 114.944 112.53 115.934 113.065 116.915C113.548 117.804 114.009 118.692 114.492 119.566C115.104 120.671 115.752 121.751 116.535 122.771L116.547 122.785C116.347 123.077 116.152 123.374 115.962 123.677C115.323 124.696 114.696 125.72 114.083 126.754C113.47 127.788 112.857 128.821 112.245 129.855C111.939 130.371 111.633 130.888 111.326 131.404L111.261 131.513C110.116 129.374 108.893 127.285 107.641 125.203C106.98 124.102 106.22 123.013 105.084 122.361C103.9 121.682 102.449 121.487 101.137 121.175C99.877 120.875 98.617 120.574 97.3572 120.274C96.1469 119.985 94.8331 119.8 93.6722 119.349C92.4921 118.889 92.0393 117.76 91.516 116.702C91.3243 116.314 91.1343 115.925 90.9439 115.536C90.5552 114.743 90.1663 113.95 89.7666 113.163C89.2035 112.052 88.6684 110.878 87.98 109.839C87.582 109.238 87.0858 108.636 86.4387 108.294C85.7943 107.953 85.0727 107.72 84.3933 107.459C81.9802 106.53 79.5389 105.673 77.1346 104.72C75.7974 104.189 74.4312 103.779 73.0709 103.325C72.3626 101.974 71.6232 100.635 70.9615 99.262C70.1474 97.5742 69.3182 95.903 68.3613 94.29C67.6041 93.0138 66.0999 92.3522 64.8003 91.7486C61.6779 90.2992 58.3688 89.1738 55.0782 88.1514C54.5181 87.3096 53.9775 86.4559 53.472 85.5791C52.8194 84.4459 52.3496 83.176 51.8616 81.9642C51.3939 80.804 50.9513 79.6324 50.5438 78.4488C50.1532 77.3148 49.9224 76.0068 49.1609 75.0538C48.2392 73.9001 46.604 73.5817 45.271 73.1244C43.7384 72.5983 42.2061 72.0698 40.6704 71.5538C39.2439 71.075 37.6254 70.7201 36.306 69.9885C36.0756 69.8607 35.8438 69.5419 36.07 69.9136C36.0354 69.857 35.9891 69.8059 35.9543 69.7483C35.8363 69.5507 35.7149 69.3564 35.6028 69.1559C33.9359 66.1743 32.5825 62.954 31.3917 59.7565C31.1024 58.9799 30.9574 57.8022 30.0762 57.5187C29.1314 57.2147 28.1225 57.0445 27.1509 56.8429C25.1732 56.4331 23.1876 56.0674 21.2063 55.6755C20.8746 55.6098 20.5406 55.5437 20.2128 55.457C20.1466 55.4391 20.0803 55.4186 20.0138 55.3997L20.0064 55.3958C20.0308 55.3435 19.7306 54.8971 19.6523 54.7296C19.5005 54.4017 19.3791 54.0558 19.2387 53.7227C18.9757 53.0965 18.701 52.4745 18.4244 51.854C17.3386 49.425 16.2675 47.0117 15.6495 44.4123C15.5718 44.0875 15.2292 43.7282 14.8846 43.6908C12.081 43.387 9.51545 42.1514 6.78949 41.5417C7.23648 40.8052 7.63766 40.0423 8.05424 39.2875C8.56151 38.3668 9.07255 37.4489 9.58444 36.5307C10.0975 35.6105 10.5666 34.6682 11.0415 33.728C11.3098 33.1967 11.5754 32.6486 11.802 32.0862L11.8016 32.0863ZM46.0866 59.2454L46.0895 59.2418L46.108 59.2837C46.102 59.2711 46.0943 59.2582 46.0866 59.2454V59.2454ZM35.3468 24.7312C34.9154 24.9568 34.4835 25.1829 34.0541 25.4112C32.7821 26.0861 31.5477 26.8219 30.316 27.567C29.0863 28.3097 27.8721 29.0685 26.6816 29.8721C26.0756 30.281 25.4861 30.7101 24.8976 31.1423C24.3875 31.5162 23.8095 31.8094 23.3 32.1838C23.1234 32.1454 22.9541 32.1095 22.8036 32.0708C22.2598 31.9278 21.7145 31.7873 21.1695 31.6497C20.0673 31.3712 18.9627 31.1017 17.8565 30.8401C16.5688 30.5348 15.278 30.24 13.9853 29.9517C14.585 29.6394 15.1828 29.3259 15.778 29.006C16.991 28.3551 18.162 27.6218 19.3438 26.9177C20.5269 26.2126 21.7227 25.5255 22.8811 24.7821C23.7853 24.2018 24.7715 23.6611 25.5947 22.9534C25.6841 22.9916 25.7835 23.0215 25.893 23.0406C28.1053 23.4332 30.317 23.8252 32.5293 24.2178C33.4695 24.3841 34.4083 24.5574 35.3467 24.7315L35.3468 24.7312ZM40.9282 33.8037C39.8635 34.4027 38.8765 35.1532 37.8808 35.8516C36.6735 36.6986 35.4615 37.537 34.2436 38.3687C33.0242 39.2014 31.8091 40.0407 30.5861 40.869C29.9745 41.2835 29.3606 41.6958 28.7464 42.1071L27.9153 42.6606C27.6577 41.3639 27.3718 40.0732 27.028 38.7968C26.7418 37.7352 26.4167 36.6851 26.032 35.6552C25.8689 35.2169 25.6925 34.7842 25.5059 34.3555C25.3776 34.0601 25.2512 33.6874 25.0861 33.3504C25.1147 33.328 25.1434 33.3057 25.173 33.2848C25.4464 33.0846 25.7436 32.917 26.0341 32.7425C26.6582 32.3666 27.2819 31.9933 27.899 31.6067C29.0955 30.8581 30.2776 30.0905 31.4674 29.3321C32.6604 28.5712 33.8624 27.8283 35.0446 27.0511C35.6565 26.6489 36.2707 26.2486 36.8874 25.8533C37.0753 25.7324 37.2577 25.6101 37.4363 25.4824C37.5084 25.5714 37.5734 25.675 37.6311 25.7949C38.4366 27.4798 39.0476 29.2865 39.7656 31.0108C40.1479 31.9283 40.5305 32.8468 40.9129 33.7642L40.9285 33.8037L40.9282 33.8037ZM50.3475 36.8962C48.4516 38.3708 46.6403 39.9542 44.7863 41.4799C43.7218 42.3562 42.6738 43.251 41.6072 44.1245C40.7393 44.8355 39.8101 45.5053 38.9642 46.25C38.0402 45.7626 36.9264 45.5371 35.9397 45.3171C33.8545 44.8515 31.7196 44.4813 29.5815 44.2291C29.708 44.1367 29.8318 44.0462 29.9535 43.9626C30.5635 43.5447 31.1724 43.1244 31.7801 42.7028C32.9946 41.8598 34.2057 41.0122 35.4017 40.1435C36.6173 39.2607 37.827 38.3701 39.0307 37.4713C39.9384 36.7949 40.8828 36.1272 41.728 35.3616C42.0918 35.6695 42.5691 35.6929 43.0454 35.7655C44.8732 36.0455 46.7008 36.3246 48.528 36.6042C49.0446 36.6834 49.5654 36.7519 50.0804 36.8466C50.1673 36.8629 50.2569 36.8789 50.3475 36.8962V36.8962ZM56.0417 47.0224C54.3067 48.7359 52.5899 50.4681 50.8081 52.1346C49.7559 53.1193 48.6928 54.0937 47.6212 55.0583C46.756 55.8371 45.9004 56.6685 44.9624 57.3673C44.0063 55.6521 43.1238 53.878 42.3103 52.101C42.3572 52.1979 42.1469 51.6995 42.1051 51.5898C41.9998 51.3173 41.9006 51.0429 41.7994 50.7691C41.6038 50.2356 41.4069 49.703 41.1831 49.1801C40.966 48.6736 40.7294 48.117 40.4207 47.6185C41.2773 46.9771 42.0848 46.2505 42.9013 45.5754C43.9622 44.6979 45.0274 43.822 46.0581 42.9099C47.9375 41.2464 49.8233 39.5665 51.5266 37.7202C52.4289 39.1822 53.2348 40.7113 54.0061 42.2441C54.4917 43.2093 54.9376 44.2189 55.3689 45.1113C55.6349 45.6625 55.9069 46.3072 56.0418 47.0222L56.0417 47.0224ZM67.962 50.7589C67.6777 50.9869 67.4161 51.2471 67.1585 51.5066C66.6643 52.003 66.1697 52.4998 65.6757 52.9972C64.7044 53.9725 63.7483 54.9628 62.7883 55.9494C61.0425 57.7458 59.3136 59.5583 57.5245 61.3122C56.3368 60.9236 55.0293 60.779 53.8158 60.5321C52.4053 60.2464 50.9961 59.9534 49.584 59.6736C48.8341 59.5254 48.0825 59.3822 47.3318 59.2371C47.0224 59.1767 46.7132 59.1171 46.4038 59.0567C46.3641 59.0489 46.3243 59.0411 46.2842 59.034C47.1538 58.1198 48.1278 57.2942 49.0358 56.4216C50.057 55.4416 51.0576 54.4426 52.0396 53.4223C53.7372 51.6574 55.4143 49.865 56.9777 47.9798C58.0503 48.1216 59.1176 48.2934 60.1788 48.5047C62.338 48.9347 64.4955 49.4903 66.5661 50.2399C67.0082 50.4002 67.5046 50.5493 67.962 50.7589V50.7589ZM74.6697 63.1403C71.0758 66.4924 67.778 70.1457 64.6468 73.931C63.9359 72.2769 63.2081 70.6316 62.4985 68.9738C61.8707 67.5053 61.2285 66.0426 60.5736 64.5859C60.2391 63.8426 59.911 63.1304 59.4329 62.5474C61.0006 60.7834 62.6201 59.0648 64.2233 57.3321C65.1585 56.3217 66.0967 55.3138 67.0204 54.2929C67.4907 53.7724 67.9608 53.2526 68.4311 52.7321C68.7043 52.4301 68.9796 52.1241 69.2088 51.7904C69.5092 52.2948 69.7167 52.8536 69.9471 53.3914C71.0411 55.9472 72.1386 58.5125 73.4013 60.9902C73.7586 61.6916 74.13 62.5249 74.6699 63.1404L74.6697 63.1403ZM76.6405 61.5118L76.6179 61.4962L76.6174 61.4941L76.6405 61.5118ZM76.8184 64.2658C78.9402 64.988 81.1092 65.5793 83.2618 66.2011C84.3867 66.5263 85.5116 66.85 86.633 67.188C86.8134 67.243 86.9939 67.2979 87.174 67.3536C86.9729 67.5191 86.7751 67.6899 86.575 67.855C85.9701 68.3549 85.3705 68.8594 84.7861 69.3834C83.6403 70.4111 82.5073 71.4535 81.3883 72.5113C80.2735 73.5644 79.2163 74.6859 78.1561 75.7938C77.6191 76.3555 77.0307 76.879 76.52 77.4637C76.2553 77.7661 76.0009 78.0291 75.6933 78.2901C75.4325 78.511 75.1121 78.6711 74.8658 78.9067C74.414 78.7973 73.9527 78.7146 73.51 78.617C70.9793 78.0603 68.4485 77.5007 65.9145 76.9566C65.8215 76.726 65.7274 76.4959 65.6325 76.2658C68.8529 72.0287 72.2762 67.9524 75.6885 63.8695C76.0604 64.0302 76.4609 64.1436 76.8185 64.2656L76.8184 64.2658Z" fill="#E43D4C"/>
<path d="M92.5864 110.159C91.9444 109.811 92.4885 108.814 93.1314 109.164C93.7734 109.512 93.2293 110.509 92.5864 110.159Z" fill="#E43D4C"/>
<path d="M77.1001 94.9403C77.7421 95.2891 77.198 96.2855 76.5552 95.9362C75.9132 95.5874 76.4572 94.5909 77.1001 94.9403Z" fill="#E43D4C"/>
<path d="M56.854 71.7077C57.496 72.0565 56.9519 73.053 56.3091 72.7036C55.6671 72.3548 56.2111 71.3584 56.854 71.7077Z" fill="#E43D4C"/>
<path d="M32.1788 52.7862L32.252 52.8259C32.894 53.1747 32.35 54.1711 31.707 53.8217L31.6338 53.782C30.9919 53.4331 31.5359 52.4367 32.1788 52.7862Z" fill="#E43D4C"/>
<path d="M18.5249 41.7068C18.455 41.8345 18.3259 41.9383 18.1862 41.9794C18.1145 42.0035 18.0421 42.0086 17.9694 41.9952C17.8929 41.9941 17.821 41.9736 17.7537 41.9336C17.6279 41.8577 17.5172 41.7428 17.4809 41.5961C17.4446 41.45 17.4537 41.2995 17.5275 41.1647L17.6002 41.0319C17.6701 40.9043 17.7991 40.8003 17.939 40.7592C18.0106 40.7351 18.083 40.7299 18.1558 40.7434C18.2323 40.7446 18.3041 40.765 18.3714 40.805C18.4973 40.8808 18.6079 40.9958 18.6443 41.1425C18.6806 41.2886 18.6716 41.439 18.5978 41.5739L18.5251 41.7066L18.5249 41.7068Z" fill="#E43D4C"/>
<path d="M24.1704 52.9137C24.8124 53.2625 24.2685 54.2589 23.6254 53.9096C22.9835 53.5608 23.5275 52.5644 24.1704 52.9137Z" fill="#E43D4C"/>
<path d="M48.2067 48.0156C48.1368 48.1433 48.0078 48.2471 47.868 48.2884C47.7963 48.3124 47.7239 48.3177 47.6511 48.3042C47.5747 48.3031 47.5028 48.2826 47.4355 48.2426C47.3096 48.1667 47.199 48.0518 47.1626 47.9051C47.1263 47.759 47.1353 47.6086 47.2091 47.4736L47.2818 47.3408C47.3517 47.2132 47.4807 47.1092 47.6206 47.0682C47.6923 47.0442 47.7646 47.0389 47.8374 47.0525C47.9139 47.0535 47.9857 47.074 48.053 47.114C48.1789 47.1899 48.2896 47.3048 48.326 47.4515C48.3623 47.5976 48.3532 47.7481 48.2794 47.8829L48.2067 48.0156Z" fill="#E43D4C"/>
<path d="M50.645 42.0623C50.003 41.7135 50.5469 40.7171 51.19 41.0666C51.832 41.4154 51.288 42.4118 50.645 42.0623Z" fill="#E43D4C"/>
<path d="M35.614 30.9489C35.4675 30.9853 35.3167 30.9767 35.1815 30.9032L35.0485 30.8309C34.9206 30.7614 34.8166 30.6328 34.7757 30.4933C34.7517 30.4219 34.7465 30.3498 34.7602 30.2771C34.7614 30.2009 34.7821 30.1291 34.8222 30.062C34.8985 29.9363 35.0139 29.8257 35.161 29.7892C35.3076 29.7528 35.4584 29.7616 35.5934 29.835L35.7264 29.9073C35.8543 29.9768 35.9583 30.1053 35.9992 30.2448C36.0232 30.3163 36.0284 30.3884 36.0147 30.461C36.0134 30.5375 35.9928 30.609 35.9527 30.6762C35.8764 30.8019 35.761 30.9123 35.6139 30.9488L35.614 30.9489Z" fill="#E43D4C"/>
<path d="M66.438 67.4404C67.08 67.7892 66.5359 68.7856 65.893 68.4363C65.2511 68.0875 65.7951 67.091 66.438 67.4404Z" fill="#E43D4C"/>
<path d="M65.2934 60.7028C64.6514 60.354 65.1955 59.3576 65.8384 59.707C66.4804 60.0559 65.9364 61.0522 65.2934 60.7028Z" fill="#E43D4C"/>
<path d="M70.0825 62.3578C70.7245 62.7067 70.1806 63.703 69.5375 63.3536C68.8956 63.0048 69.4395 62.0084 70.0825 62.3578Z" fill="#E43D4C"/>
<path d="M85.4321 83.1876C84.7902 82.8387 85.3342 81.8423 85.9771 82.1918C86.6191 82.5406 86.0751 83.537 85.4321 83.1876Z" fill="#E43D4C"/>
<path d="M107.714 93.789C107.645 93.9166 107.515 94.0205 107.376 94.0618C107.304 94.0858 107.232 94.0909 107.159 94.0775C107.082 94.0763 107.01 94.0559 106.943 94.016C106.817 93.9401 106.707 93.8252 106.67 93.6784C106.634 93.5323 106.643 93.3819 106.717 93.247L106.79 93.1143C106.86 92.9866 106.989 92.8827 107.128 92.8415C107.2 92.8175 107.272 92.8122 107.345 92.8258C107.422 92.8268 107.494 92.8474 107.561 92.8873C107.687 92.9632 107.797 93.0781 107.834 93.2248C107.87 93.3709 107.861 93.5214 107.787 93.6563L107.715 93.7891L107.714 93.789Z" fill="#E43D4C"/>
<path d="M105.974 98.7992C106.051 98.8002 106.122 98.8207 106.19 98.8607C106.316 98.9366 106.426 99.0515 106.463 99.1982C106.499 99.3443 106.49 99.4948 106.416 99.6297L106.343 99.7625C106.274 99.8901 106.145 99.9941 106.005 100.035C105.933 100.059 105.861 100.064 105.788 100.051C105.711 100.05 105.64 100.029 105.572 99.9893C105.446 99.9135 105.336 99.7985 105.299 99.6518C105.263 99.5057 105.272 99.3553 105.346 99.2204L105.419 99.0877C105.488 98.96 105.617 98.8561 105.757 98.8149C105.829 98.7909 105.901 98.7856 105.974 98.7992Z" fill="#E43D4C"/>
<path d="M100.735 98.7387C100.093 98.3898 100.637 97.3935 101.28 97.7429C101.922 98.0918 101.378 99.0882 100.735 98.7387Z" fill="#E43D4C"/>
<path d="M118.973 116.385C118.827 116.421 118.676 116.412 118.541 116.339L118.408 116.267C118.28 116.197 118.176 116.068 118.135 115.929C118.111 115.858 118.106 115.785 118.119 115.713C118.121 115.636 118.141 115.565 118.181 115.498C118.258 115.372 118.373 115.261 118.52 115.225C118.667 115.189 118.818 115.197 118.953 115.271L119.086 115.343C119.214 115.413 119.318 115.541 119.359 115.681C119.383 115.752 119.388 115.824 119.374 115.897C119.373 115.973 119.352 116.045 119.312 116.112C119.236 116.238 119.12 116.348 118.973 116.385V116.385Z" fill="#E43D4C"/>
<path d="M123.889 109.926C123.743 109.962 123.592 109.953 123.457 109.88L123.324 109.807C123.196 109.738 123.092 109.609 123.051 109.47C123.027 109.398 123.022 109.326 123.035 109.254C123.037 109.177 123.057 109.106 123.097 109.039C123.174 108.913 123.289 108.802 123.436 108.766C123.583 108.729 123.734 108.738 123.869 108.812L124.002 108.884C124.13 108.954 124.234 109.082 124.275 109.221C124.299 109.293 124.304 109.365 124.29 109.438C124.289 109.514 124.268 109.586 124.228 109.653C124.152 109.779 124.036 109.889 123.889 109.926L123.889 109.926Z" fill="#E43D4C"/>
<path d="M123.684 114.826C123.042 114.477 123.586 113.481 124.229 113.83C124.871 114.179 124.327 115.176 123.684 114.826V114.826Z" fill="#E43D4C"/>
<path d="M114.866 112.964C114.224 112.615 114.768 111.618 115.411 111.968C116.053 112.317 115.509 113.313 114.866 112.964Z" fill="#E43D4C"/>
<path d="M76.1227 101.008C76.1767 100.957 76.2403 100.922 76.3136 100.903C76.4564 100.868 76.6166 100.871 76.7461 100.949C76.8752 101.027 76.9756 101.14 77.019 101.287L77.0793 101.492C77.1204 101.631 77.1025 101.795 77.0328 101.923C76.9979 101.993 76.9486 102.049 76.8849 102.092C76.831 102.143 76.7675 102.177 76.694 102.196C76.5512 102.231 76.391 102.228 76.2614 102.15C76.1323 102.072 76.0319 101.96 75.9886 101.813L75.9282 101.608C75.8871 101.468 75.9048 101.304 75.9747 101.176C76.0096 101.106 76.0589 101.05 76.1226 101.008L76.1227 101.008Z" fill="#E43D4C"/>
<path d="M53.6163 65.6415L53.6895 65.6813C54.3314 66.0302 53.7876 67.0265 53.1446 66.6772L53.0713 66.6374C52.4293 66.2886 52.9733 65.2922 53.6163 65.6416L53.6163 65.6415Z" fill="#E43D4C"/>
<path d="M123.702 122.675C124.344 123.024 123.8 124.02 123.157 123.671C122.515 123.322 123.059 122.325 123.702 122.675Z" fill="#E43D4C"/>
<path d="M118.741 126.697C119.383 127.046 118.839 128.042 118.196 127.693C117.554 127.344 118.098 126.347 118.741 126.697Z" fill="#E43D4C"/>
<path d="M102.773 117.9C102.827 117.849 102.89 117.815 102.964 117.796C103.107 117.761 103.267 117.764 103.396 117.842C103.526 117.92 103.626 118.032 103.669 118.179L103.73 118.384C103.771 118.524 103.753 118.688 103.683 118.816C103.648 118.886 103.599 118.942 103.535 118.984C103.481 119.035 103.418 119.07 103.345 119.088C103.202 119.124 103.042 119.121 102.912 119.042C102.783 118.965 102.682 118.852 102.639 118.705L102.579 118.5C102.538 118.36 102.556 118.196 102.625 118.068C102.66 117.998 102.71 117.942 102.773 117.9L102.773 117.9Z" fill="#E43D4C"/>
</svg>
