<svg width="148" height="125" viewBox="0 0 148 125" fill="none" xmlns="http://www.w3.org/2000/svg">
<path d="M62.2375 47.679L62.2635 47.6649L62.2396 47.6793L62.2375 47.679Z" fill="#E43D4C"/>
<path d="M33.5423 96.8196C33.5563 96.8041 33.5676 96.7936 33.5708 96.794C33.5778 96.7945 33.5598 96.8073 33.5423 96.8196Z" fill="#E43D4C"/>
<path d="M47.7381 74.6133C47.7241 74.6136 47.7093 74.6154 47.6944 74.6171L47.6923 74.613L47.7381 74.6133V74.6133Z" fill="#E43D4C"/>
<path d="M34.6787 77.6888L34.6847 77.6717L34.7108 77.6622L34.7174 77.6609L34.7194 77.6585C34.7369 77.6527 34.7395 77.6499 34.726 77.6534C34.7387 77.6426 34.7508 77.6334 34.7621 77.622C34.8455 77.5366 34.8031 77.5984 34.7529 77.6538C34.7098 77.7009 34.6622 77.742 34.6786 77.6885L34.6787 77.6888Z" fill="#E43D4C"/>
<path d="M62.4281 47.4809C62.4352 47.4755 62.4703 47.444 62.5468 47.3733C62.4782 47.4381 62.4116 47.5068 62.3405 47.5696C62.2909 47.6131 62.2449 47.6502 62.2063 47.6795L62.1621 47.6839C62.0092 47.7015 61.8571 47.7338 61.704 47.7535C61.306 47.8037 60.9049 47.8347 60.5051 47.8608C58.2546 48.0067 55.9916 47.9983 53.7368 47.9856C52.8998 47.9816 51.9094 47.9592 50.9953 47.9586C50.1228 47.9578 49.2662 48.0619 48.4854 48.4803C47.6937 48.9043 47.0882 49.583 46.4805 50.2321C44.2063 52.6613 42.1345 55.2483 40.3463 58.0541C39.3445 57.8891 38.2767 57.8899 37.2919 57.8926C34.8055 57.8976 32.2058 57.9425 29.7509 58.3775C29.4221 58.4361 29.0543 58.4871 28.7481 58.617C27.7882 59.0245 27.1242 60.0106 26.5707 60.8467C25.3509 62.6896 24.1347 64.5348 22.9175 66.3797C21.0766 66.3093 19.2362 66.2329 17.3944 66.1776C16.3556 66.1466 15.3162 66.116 14.2771 66.0946C13.2934 66.0749 12.374 66.1249 11.5353 66.7038C10.7417 67.2519 10.2318 68.1128 9.70209 68.8976C9.09816 69.7913 8.49143 70.6823 7.8806 71.5706C6.71066 73.2738 5.5397 74.9769 4.36976 76.68C3.99187 77.2291 4.10327 77.8132 4.4295 78.2212C4.26486 79.45 4.46397 80.7353 4.55364 81.9613C4.65459 83.3349 4.82186 84.7036 4.96803 86.073C5.11385 87.442 5.22999 88.8182 5.43669 90.1787C5.64677 91.566 5.88769 92.949 6.10536 94.3353C6.18102 94.8136 6.50327 95.0646 6.8589 95.1189C7.25226 95.9611 7.76979 96.7618 8.28102 97.5226C8.86817 98.3988 9.44175 99.2834 10.055 100.141C10.6665 100.997 11.2781 101.852 11.8939 102.704C12.5809 103.656 13.2524 104.617 14.0525 105.478C14.2637 105.705 14.5134 105.856 14.7782 105.915L14.8048 105.938C15.2173 106.247 15.9502 106.22 16.2439 105.743C17.8732 103.098 20.2939 101.074 22.046 98.5252C23.9982 98.9018 25.9602 99.0018 27.9534 99.0188C28.9326 99.0278 29.9122 99.0269 30.8916 99.0499C31.9158 99.074 33.0098 99.2419 34.015 98.9968C35.0616 98.7422 35.5992 97.9267 36.2095 97.1043C37.8465 94.8983 39.2775 92.5459 40.9458 90.3627C41.4731 90.4117 42.0018 90.4453 42.531 90.473C44.5976 90.5795 46.6702 90.6037 48.7393 90.5942C50.2547 90.5874 51.8113 90.6576 53.3196 90.4771C54.3229 90.3573 55.0746 89.7364 55.7568 89.0199C56.9154 87.8031 58.0037 86.5096 59.1285 85.2606C60.2709 83.9925 61.3967 82.7084 62.5301 81.432C63.0072 80.8949 63.4983 80.1957 64.2696 80.1282C64.7837 80.0835 65.3146 80.1888 65.8272 80.2347C68.2073 80.4479 70.6055 80.5169 72.9936 80.4897C74.2008 80.4761 75.4109 80.485 76.6179 80.4535C77.4455 80.4314 78.5643 80.4929 79.1646 79.839C81.0233 77.8114 82.7982 75.7173 84.7626 73.7869C85.8661 72.7017 87.0122 71.5411 88.3419 70.7327L88.3736 70.7132L88.4058 70.6981C88.4613 70.671 88.5168 70.644 88.5726 70.6176C88.641 70.5863 88.7178 70.5621 88.7472 70.5521C88.8355 70.537 88.924 70.5248 89.0133 70.5148C89.5837 70.453 90.1615 70.4434 90.734 70.4094C92.4399 70.3105 94.1411 70.1228 95.848 70.0528C97.0205 70.0047 98.2251 70.0389 99.3928 69.9155C99.7414 69.8791 99.9734 69.7078 100.214 69.4755L100.257 69.4386C100.318 69.3811 100.378 69.3204 100.438 69.261C100.597 69.1064 100.757 68.9513 100.916 68.7959C102.016 67.7254 103.059 66.6227 104.089 65.4837C105.253 64.1962 106.489 62.9677 107.705 61.7301C108.497 60.9237 109.13 60.1563 110.045 59.4316C110.756 58.8684 111.85 59.0492 112.705 59.0046C113.809 58.9463 114.911 58.8757 116.013 58.8006C116.627 58.7587 117.242 58.7172 117.857 58.6715C119.333 58.5608 120.987 58.6199 122.298 57.8268C123.668 56.998 124.579 55.4539 125.533 54.2082C126.566 52.8611 127.598 51.5141 128.63 50.1664C129.125 49.5208 129.591 48.7685 130.214 48.239C130.751 47.783 131.423 47.6591 132.102 47.5861C135.353 47.2344 138.584 46.8544 141.801 46.2693C142.303 46.4414 142.901 46.0949 143.119 45.6097C143.312 45.5504 143.488 45.4376 143.601 45.2924C144.069 44.6962 143.83 43.6342 143.802 42.9093C143.777 42.2681 143.759 41.6263 143.716 40.9854C143.634 39.7517 143.554 38.5178 143.457 37.2849C143.276 34.9906 142.91 32.7093 142.35 30.4803C142.617 30.145 142.598 29.6891 142.361 29.3307C142.271 29.1947 142.222 29.0045 142.116 28.8608C142.028 28.7429 141.929 28.6324 141.836 28.5182C141.639 28.2744 141.445 28.0284 141.249 27.7831C140.898 27.3447 140.533 26.9159 140.179 26.4783C139.725 25.9165 139.283 25.3454 138.843 24.773C138.621 24.4846 138.4 24.1962 138.178 23.908C136.786 22.1017 135.365 20.3158 133.877 18.5884C133.565 18.225 133.152 18.2754 132.902 18.5131C132.83 18.4572 132.744 18.4138 132.647 18.3907C130.378 17.8465 128.112 17.6267 125.795 17.3979C124.644 17.2846 123.495 17.1698 122.343 17.0806C121.342 17.0028 120.26 16.8295 119.317 17.2822C118.269 17.7854 117.56 18.7827 116.825 19.647C116.07 20.5351 115.318 21.4266 114.555 22.3089C113.165 23.9188 111.774 25.5285 110.382 27.1382C105.634 27.2373 100.901 26.8631 96.2361 25.9625C95.8046 25.8794 95.3399 26.1044 95.0786 26.4426C92.2125 30.1447 88.7157 33.4292 85.2761 36.5998C82.1725 36.6177 79.0671 36.6418 75.9637 36.7224C74.7643 36.7538 73.494 36.6957 72.3062 36.8953C71.2162 37.0775 70.4593 38.2553 69.7767 39.0338C67.4022 41.7404 65.178 44.595 62.7006 47.2096C62.6503 47.2622 62.4429 47.4624 62.4279 47.4813L62.4281 47.4809ZM85.4326 39.1185C85.6491 39.5521 85.9115 39.9659 86.1485 40.3876C86.5168 41.0404 86.8824 41.6943 87.2456 42.3502C87.9731 43.661 88.6913 44.9769 89.4006 46.2985C90.1323 47.6612 90.8336 49.0414 91.5979 50.3869C91.9281 50.9679 92.2685 51.5449 92.5789 52.1361C92.7016 52.3681 92.8174 52.6061 92.8989 52.8552C92.9377 52.9741 92.9049 52.9735 92.9581 53.1451L92.9606 53.1909C92.945 53.2266 92.9288 53.2618 92.9112 53.2961C92.8323 53.4677 92.8116 53.6471 92.8344 53.8201C91.985 54.0101 91.1063 54.1301 90.2609 54.2579C87.8678 54.6192 85.4353 54.8068 83.0145 54.7531C81.8698 54.7276 80.6195 54.4877 79.5 54.7951C79.3643 54.8329 79.2345 54.8797 79.1102 54.9336C79.0544 54.8514 79.0016 54.7679 78.9553 54.6815C78.7621 54.3264 78.6282 53.9868 78.4995 53.6051C78.2499 52.8685 77.9168 52.1584 77.6542 51.4259C77.1423 50.0013 76.6732 48.5629 76.1721 47.1347C75.6698 45.7065 75.1722 44.2766 74.6995 42.8373C74.4555 42.0944 74.2019 41.355 73.9478 40.6151C73.8211 40.2473 73.7125 39.8674 73.57 39.5051C73.5494 39.4541 73.5273 39.4024 73.5046 39.3512C74.3007 39.3076 75.0982 39.2886 75.8953 39.2688C78.207 39.2123 80.5188 39.1749 82.8315 39.1462C83.651 39.136 84.4704 39.127 85.2896 39.119L85.4326 39.1184L85.4326 39.1185ZM95.7496 29.5598C95.7713 29.626 95.7931 29.6913 95.814 29.7563C96.0444 30.4714 96.2664 31.1892 96.5191 31.896C97.0158 33.2856 97.5098 34.6755 98.002 36.0666C98.4937 37.4572 99.0007 38.8418 99.5129 40.2254C99.7705 40.9198 99.9808 41.6674 100.317 42.3265C100.481 42.6468 100.649 42.9349 100.765 43.2773C100.887 43.6364 100.924 44.0433 101.134 44.3585C99.559 46.5179 97.984 48.6766 96.409 50.8351C95.9416 51.4752 95.5007 52.2807 94.9112 52.8674C94.8739 52.5112 94.799 52.1515 94.6579 51.7852C94.4038 51.1241 94.042 50.4988 93.7205 49.8692C92.9943 48.4461 92.1962 47.0637 91.3995 45.6791C90.6268 44.3363 89.844 42.9992 89.052 41.6672C88.644 40.9799 88.2327 40.2943 87.8195 39.61C87.5742 39.2049 87.345 38.7821 87.0825 38.3845C87.4225 38.0662 87.7472 37.7253 88.0777 37.4094C89.0313 36.4984 89.9753 35.5786 90.909 34.6477C92.561 33.0004 94.226 31.3365 95.7496 29.5597L95.7496 29.5598ZM111.067 29.5298C111.095 29.7846 111.126 30.0398 111.154 30.2952C111.231 30.9808 111.304 31.6668 111.41 32.3483C111.622 33.711 111.843 35.0717 112.073 36.4305C112.307 37.8126 112.543 39.1938 112.835 40.5653C112.979 41.2389 113.125 41.9122 113.273 42.5846C113.347 42.9204 113.424 43.2561 113.496 43.5925C113.504 43.6259 113.511 43.66 113.52 43.6936C112.385 43.6483 111.251 43.585 110.118 43.5005C107.793 43.3274 105.476 43.0705 103.168 42.7352C102.994 42.7092 102.814 42.7237 102.643 42.7707C102.632 42.746 102.621 42.7223 102.611 42.6967C102.494 42.3957 102.418 42.1165 102.352 41.8018C102.19 41.0316 101.86 40.2904 101.59 39.5518C101.075 38.1429 100.553 36.7378 100.008 35.3406C99.4627 33.9438 98.9155 32.5479 98.3661 31.1538C98.0911 30.4564 97.7842 29.772 97.4852 29.0843C97.429 28.955 97.3726 28.8217 97.3144 28.6873C99.7275 29.0932 102.161 29.3675 104.605 29.5044C105.901 29.5763 107.197 29.6068 108.496 29.6105C109.198 29.6125 109.901 29.6043 110.604 29.5837C110.777 29.5792 110.929 29.5603 111.067 29.53L111.067 29.5298ZM119.653 19.9607C119.659 20.2486 119.668 20.536 119.693 20.824C119.759 21.5686 119.823 22.3118 119.885 23.0561C120.015 24.5953 120.122 26.1358 120.263 27.6739C120.403 29.2119 120.516 30.7544 120.672 32.2909C120.749 33.0347 120.823 33.7789 120.896 34.5229C120.935 34.9204 120.974 35.3172 121.011 35.714C121.036 35.9684 121.039 36.2219 121.062 36.4729C120.854 36.6934 120.66 36.932 120.477 37.185C119.763 38.1725 119.102 39.2011 118.423 40.2118C117.777 41.1743 117.181 42.2281 116.437 43.1177C116.141 43.4714 115.783 43.6368 115.395 43.7078L115.383 43.6575C115.344 43.4899 115.307 43.3226 115.272 43.1533C115.202 42.8171 115.132 42.4804 115.063 42.1437C114.925 41.4693 114.79 40.7947 114.656 40.1199C114.389 38.7665 114.081 37.4214 113.796 36.0714C113.505 34.6955 113.223 33.3169 112.951 31.9367C112.818 31.257 112.648 30.5831 112.495 29.9072C112.406 29.5153 112.323 29.1227 112.226 28.7337C112.271 28.6839 112.314 28.6325 112.36 28.5788C114.179 26.4182 115.991 24.2506 117.828 22.1049C118.295 21.5599 118.76 21.0142 119.228 20.4692C119.361 20.3137 119.501 20.1315 119.654 19.9608L119.653 19.9607ZM131.842 19.7157C131.798 20.1137 131.758 20.5128 131.766 20.9217C131.778 21.5768 131.814 22.2314 131.839 22.8866C131.887 24.1946 131.995 25.498 132.093 26.8035C132.267 29.1119 132.548 31.4138 132.848 33.7088C132.885 33.991 132.92 34.2734 132.958 34.5552C132.73 34.5589 132.502 34.561 132.275 34.5628C130.372 34.5771 128.468 34.5331 126.565 34.6393C125.465 34.7011 124.352 34.7908 123.286 35.0866C123.191 35.1133 123.098 35.1433 123.007 35.1758C122.986 34.8743 122.965 34.5729 122.943 34.2719C122.89 33.5253 122.835 32.7793 122.778 32.0327C122.661 30.493 122.487 28.9568 122.326 27.4209C122.167 25.8863 121.961 24.356 121.763 22.8259C121.668 22.0859 121.571 21.3457 121.472 20.6064C121.42 20.2087 121.337 19.8225 121.252 19.4306C121.245 19.3989 121.238 19.3671 121.231 19.3348C121.593 19.3566 121.963 19.42 122.29 19.4428C122.957 19.4902 123.623 19.5273 124.29 19.5607C126.818 19.6878 129.32 19.8646 131.842 19.7156L131.842 19.7157ZM141.708 42.7471L140.961 41.7875C140.239 40.8598 139.517 39.932 138.795 39.0044C138.072 38.0756 137.34 37.1582 136.595 36.248C135.992 35.5126 135.364 34.8212 134.713 34.1429C134.667 33.1478 134.617 32.1519 134.56 31.1564C134.474 29.6416 134.37 28.1276 134.216 26.6191C134.085 25.3443 133.97 24.0682 133.791 22.7992C133.7 22.1524 133.613 21.5049 133.518 20.8587C133.502 20.7477 133.48 20.6383 133.458 20.5298C134.422 22.1409 135.422 23.7366 136.518 25.2581C136.862 25.7344 137.212 26.2062 137.567 26.6746C137.883 27.0909 138.201 27.5048 138.523 27.9153C138.885 28.3784 139.249 28.8418 139.636 29.284C139.828 29.5031 140.021 29.7215 140.216 29.9383C140.358 30.0973 140.499 30.2826 140.665 30.417C140.778 30.5087 140.93 30.5706 141.032 30.6595C141.049 30.675 141.067 30.6881 141.085 30.7019C141.245 32.9977 141.336 35.296 141.454 37.5949C141.519 38.856 141.567 40.1169 141.618 41.3782C141.637 41.8352 141.671 42.2908 141.708 42.747L141.708 42.7471ZM33.5418 96.8192C33.5558 96.8038 33.567 96.7935 33.5701 96.7938C33.5771 96.7943 33.5592 96.807 33.5418 96.8192ZM8.8859 94.79C11.1479 91.7496 13.4584 88.7445 15.8567 85.8113C19.6258 85.7655 23.3625 86.6107 27.0047 87.4926C27.5841 87.6331 28.116 87.1743 28.3626 86.7092C28.4488 86.5472 28.5386 86.3875 28.6274 86.2265L28.6759 86.14L28.7126 86.0768C28.7696 85.979 28.8268 85.8803 28.8844 85.7821C29.1787 85.2806 29.4795 84.7829 29.7853 84.2879C30.5057 83.1207 31.248 81.9635 32.0389 80.8417C32.7093 79.8916 33.4014 78.9403 34.2022 78.0934C34.1922 78.1115 34.4776 77.8339 34.5452 77.7803C34.5851 77.749 34.6334 77.7197 34.678 77.6886L34.684 77.6716L34.7101 77.6621L34.7167 77.6608L34.7187 77.6583C34.7362 77.6526 34.7388 77.6498 34.7253 77.6532C34.7381 77.6425 34.7501 77.6333 34.7614 77.6219C34.8448 77.5365 34.8024 77.5982 34.7522 77.6536C34.8553 77.6331 34.9598 77.6142 35.0649 77.5998C35.2772 77.5692 35.491 77.5518 35.7051 77.5398C36.1212 77.5175 36.5363 77.5351 36.9519 77.5596C39.0243 77.6799 41.0237 77.7028 43.0953 77.6152C44.1568 77.5698 45.2188 77.5185 46.2782 77.4378C46.9998 77.3823 47.8396 77.3777 48.5229 77.1088C49.2819 76.8107 49.6802 75.9216 50.1184 75.2867C50.6818 74.4724 51.2477 73.6602 51.8052 72.8419C52.9709 71.1295 54.1234 69.4083 55.296 67.7012C55.7891 66.9835 56.222 66.1146 57.1602 65.9968C58.0814 65.8814 59.0428 65.9382 59.9697 65.9318C62.0271 65.917 64.0737 65.9344 66.128 66.0447C67.5002 66.1185 68.8735 66.1836 70.2474 66.2457C70.5154 66.3839 70.8321 66.4156 71.1556 66.286C71.4922 66.3004 71.8289 66.3159 72.165 66.331C73.0465 66.3688 73.4243 66.1091 73.9447 65.4172C74.2167 65.0555 74.4893 64.6935 74.7609 64.3312C75.3872 63.4984 76.0053 62.6599 76.6263 61.8226C77.3009 60.9131 77.9754 60.0038 78.651 59.0944C78.9205 58.7309 79.1869 58.3641 79.4603 58.0032C79.6557 57.7447 79.8481 57.4058 80.1684 57.2871C80.4883 57.1678 80.9262 57.2546 81.2583 57.2726C81.7266 57.2991 82.195 57.3169 82.6638 57.3276C83.56 57.3474 84.4571 57.3467 85.3532 57.3173C87.2606 57.255 89.1635 57.0677 91.0474 56.7627C92.8403 56.4717 95.0941 56.2901 96.4694 54.9757C97.2464 54.2326 97.8383 53.2769 98.4721 52.4128C99.0549 51.6191 99.6372 50.8247 100.219 50.0303C101.34 48.5028 102.461 46.9752 103.581 45.4477C106.014 45.7885 108.458 46.0433 110.909 46.2022C112.103 46.2798 113.299 46.3431 114.495 46.3712C115.726 46.4003 116.899 46.2987 117.871 45.4471C118.795 44.637 119.419 43.4973 120.101 42.4883C120.79 41.4688 121.477 40.4491 122.16 39.4256C122.764 38.5206 123.259 37.7427 124.378 37.5124C125.473 37.2867 126.605 37.1811 127.719 37.0948C128.728 37.0173 129.727 36.9603 130.722 36.8768C131.981 36.771 133.232 36.6218 134.482 36.3238L134.5 36.319C134.685 36.6212 134.876 36.9204 135.075 37.2178C135.743 38.2175 136.421 39.2089 137.114 40.1913C137.807 41.1733 138.499 42.1552 139.191 43.1365C139.538 43.6272 139.884 44.118 140.229 44.6091L140.302 44.713C137.882 44.8824 135.475 45.1444 133.063 45.4348C131.788 45.588 130.484 45.835 129.423 46.6055C128.32 47.4079 127.548 48.6524 126.727 49.7215C125.937 50.7484 125.147 51.7752 124.358 52.8021C123.6 53.7883 122.893 54.9114 122.006 55.7859C121.104 56.6747 119.889 56.626 118.709 56.6704C118.276 56.6866 117.844 56.701 117.411 56.7157C116.528 56.7458 115.646 56.7762 114.764 56.8188C113.52 56.8784 112.229 56.886 111 57.0892C110.289 57.2066 109.537 57.4131 108.96 57.8636C108.385 58.3122 107.877 58.8754 107.361 59.3883C105.526 61.2103 103.745 63.0872 101.892 64.8911C100.861 65.8943 99.927 66.9729 98.9569 68.0287C97.4341 68.1222 95.9098 68.249 94.386 68.2911C92.5128 68.3433 90.6486 68.4163 88.7854 68.6295C87.3111 68.7983 86.092 69.9002 85.0095 70.8391C82.4095 73.0952 80.0288 75.6542 77.7496 78.2386C76.7523 78.4052 75.7522 78.5493 74.7453 78.6519C73.4443 78.7837 72.0934 78.6928 70.7879 78.6423C69.5379 78.5944 68.2878 78.519 67.041 78.4066C65.8465 78.2991 64.5586 77.9745 63.3775 78.2795C61.9476 78.6485 60.988 80.0103 60.0254 81.0395C58.9183 82.2228 57.8092 83.4047 56.7101 84.5949C55.6895 85.7007 54.7035 87.0323 53.4962 87.937C53.2854 88.0949 52.8995 88.176 53.3313 88.1217C53.2654 88.1301 53.1999 88.1514 53.1331 88.1597C52.9046 88.1864 52.6776 88.2177 52.4488 88.238C49.0461 88.5392 45.554 88.4566 42.1492 88.235C41.3222 88.1813 40.1882 87.8318 39.5691 88.5199C38.905 89.2576 38.3371 90.1085 37.7556 90.9127C36.5725 92.5496 35.4265 94.2118 34.2582 95.8594C34.0626 96.1351 33.8657 96.4129 33.6524 96.6765C33.609 96.7296 33.5631 96.7817 33.5187 96.8347L33.5121 96.8398C33.4744 96.7962 32.9442 96.8874 32.7594 96.8904C32.398 96.8948 32.0328 96.8639 31.6714 96.8558C30.9924 96.8396 30.3124 96.8358 29.6331 96.8343C26.9724 96.8313 24.3322 96.8214 21.7074 96.3218C21.3793 96.2598 20.9112 96.4255 20.7361 96.7246C19.3119 99.1585 17.1348 100.994 15.4632 103.232C14.974 102.523 14.442 101.845 13.9238 101.156C13.2911 100.316 12.6626 99.4742 12.0343 98.6315C11.4045 97.7868 10.7366 96.9733 10.0729 96.1553C9.69793 95.6932 9.30643 95.2266 8.88596 94.7896L8.8859 94.79ZM47.6948 74.6171L47.6927 74.613L47.7385 74.6133C47.7245 74.6136 47.7097 74.6153 47.6948 74.6171V74.6171ZM11.8074 70.2965C11.8368 70.7824 11.8664 71.269 11.899 71.7542C11.9945 73.191 12.1609 74.6184 12.3368 76.0472C12.5114 77.4731 12.707 78.8915 12.9533 80.3065C13.0785 81.0267 13.2288 81.7402 13.3824 82.454C13.5149 83.0725 13.5459 83.7199 13.6791 84.3379C13.5719 84.4834 13.4698 84.6232 13.373 84.7446C13.02 85.1823 12.6687 85.6224 12.3201 86.0635C11.6151 86.9552 10.9173 87.8529 10.2259 88.7552C9.42058 89.8054 8.62343 90.8626 7.83156 91.9242C7.7919 91.2492 7.75046 90.5754 7.70206 89.9014C7.60438 88.5283 7.41435 87.1599 7.25533 85.7934C7.09597 84.4253 6.95825 83.0531 6.75383 81.6919C6.59431 80.6295 6.5044 79.5084 6.19539 78.4677C6.26688 78.4018 6.33479 78.3233 6.39696 78.2312C7.66033 76.3731 8.92289 74.5154 10.1863 72.6573C10.7227 71.8674 11.2649 71.0817 11.8077 70.2966L11.8074 70.2965ZM22.3694 68.9153C22.4803 70.1319 22.7614 71.3395 22.9913 72.5338C23.2702 73.982 23.5394 75.4309 23.8 76.8825C24.061 78.3358 24.3297 79.788 24.5851 81.2428C24.7131 81.9704 24.8381 82.6994 24.9622 83.428L25.1273 84.4129C23.8386 84.1174 22.5439 83.8502 21.2386 83.6417C20.1528 83.4685 19.0616 83.3356 17.9645 83.2652C17.4978 83.2348 17.0307 83.2187 16.5633 83.2135C16.2412 83.2098 15.8494 83.1726 15.4744 83.1854C15.4657 83.1501 15.4571 83.1149 15.4501 83.0793C15.3793 82.7479 15.3479 82.4082 15.3075 82.0717C15.2199 81.3485 15.1344 80.6266 15.0341 79.9053C14.8406 78.5073 14.6237 77.1146 14.4185 75.7187C14.2123 74.3188 14.0261 72.918 13.8006 71.5213C13.684 70.7984 13.57 70.0742 13.4616 69.3498C13.4282 69.1288 13.3912 68.9124 13.3477 68.6971C13.4585 68.6678 13.5795 68.6508 13.7126 68.6472C15.5795 68.6016 17.4781 68.7832 19.3453 68.8335C20.3388 68.86 21.3335 68.8867 22.3271 68.9131L22.3694 68.915L22.3694 68.9153ZM29.0449 61.5855C29.6148 63.9188 30.3185 66.2194 30.9522 68.5353C31.3163 69.8652 31.704 71.1876 32.0647 72.5182C32.3584 73.601 32.5894 74.723 32.9228 75.7995C32.1001 76.4431 31.4386 77.3673 30.8342 78.1776C29.5562 79.8898 28.345 81.6864 27.2401 83.5341C27.2076 83.3809 27.1757 83.231 27.1492 83.0857C27.0174 82.3581 26.883 81.6306 26.7469 80.9036C26.4745 79.4504 26.1966 77.9985 25.8933 76.5519C25.5851 75.0814 25.2673 73.6133 24.9396 72.1472C24.6938 71.0422 24.4709 69.9073 24.1181 68.8228C24.5479 68.6169 24.7646 68.1909 25.0257 67.786C26.029 66.2327 27.0313 64.6793 28.034 63.1264C28.3177 62.6874 28.5932 62.2402 28.8904 61.809C28.9408 61.7364 28.992 61.6611 29.0449 61.5855V61.5855ZM40.6144 60.5326C41.4681 62.8168 42.3464 65.092 43.138 67.3997C43.6061 68.7626 44.0602 70.1313 44.5021 71.5038C44.8586 72.6119 45.2673 73.7328 45.5211 74.8745C43.5649 75.0453 41.585 75.1247 39.6307 75.14C39.7384 75.1368 39.1976 75.1249 39.0804 75.1181C38.7885 75.1027 38.4976 75.081 38.2063 75.0613C37.6396 75.0214 37.073 74.9832 36.5043 74.9735C35.9533 74.9644 35.3487 74.9526 34.7675 75.0303C34.5327 73.9863 34.2001 72.9522 33.918 71.9309C33.5514 70.6039 33.1879 69.2735 32.7774 67.9599C32.0283 65.5644 31.267 63.1564 30.2791 60.8468C31.9823 60.6216 33.7074 60.5119 35.4215 60.4352C36.5009 60.3869 37.6045 60.3931 38.5953 60.3647C39.2071 60.3474 39.9067 60.3631 40.6143 60.5324L40.6144 60.5326ZM48.9008 51.1843C48.9925 51.537 49.1229 51.8821 49.2543 52.2233C49.5051 52.8774 49.7561 53.532 50.0078 54.1862C50.5004 55.4715 51.0128 56.7491 51.5203 58.0287C52.4452 60.3567 53.3918 62.6758 54.2602 65.0258C53.4197 65.9506 52.7529 67.0845 52.0311 68.0908C51.1933 69.2609 50.3494 70.4269 49.5164 71.601C49.0744 72.2247 48.6362 72.8519 48.1967 73.4775C48.015 73.7352 47.8341 73.9929 47.6524 74.2505C47.629 74.2835 47.6056 74.3167 47.5828 74.3504C47.1044 73.1828 46.7494 71.9563 46.3247 70.7708C45.8483 69.438 45.3461 68.1163 44.8169 66.8028C43.901 64.5317 42.9516 62.2681 41.871 60.0703C42.4392 59.1495 43.0326 58.2459 43.6596 57.364C44.9353 55.5697 46.325 53.8284 47.8561 52.2457C48.1832 51.9078 48.5224 51.5159 48.9008 51.1843V51.1843ZM62.9429 50.1292C64.5312 54.7799 66.5156 59.2838 68.6886 63.6895C66.8884 63.6615 65.0893 63.6524 63.2863 63.6217C61.6894 63.5938 60.092 63.5813 58.4949 63.583C57.6798 63.5841 56.8957 63.5921 56.1681 63.7899C55.1998 61.6377 54.2943 59.4567 53.3691 57.285C52.8298 56.0182 52.2939 54.7498 51.7402 53.4893C51.4577 52.8472 51.1757 52.2056 50.8932 51.5635C50.7294 51.1907 50.5628 50.8143 50.3521 50.4686C50.9352 50.4008 51.53 50.4401 52.115 50.4499C54.8947 50.4974 57.6846 50.5453 60.462 50.4069C61.2482 50.3678 62.1605 50.3698 62.943 50.129L62.9429 50.1292ZM62.2632 47.6646L62.2397 47.6788L62.2375 47.6784L62.2632 47.6646ZM64.8489 48.6289C66.376 46.9884 67.8029 45.2511 69.2509 43.5413C70.0079 42.6479 70.7635 41.7538 71.5307 40.8689C71.6547 40.7267 71.7786 40.5845 71.9031 40.443C71.9719 40.6942 72.0468 40.9445 72.1156 41.1947C72.3243 41.9512 72.5393 42.7047 72.7783 43.4523C73.2473 44.9183 73.735 46.3786 74.2424 47.8324C74.7472 49.2805 75.3381 50.704 75.9152 52.1246C76.2081 52.8445 76.445 53.5956 76.7697 54.3008C76.9373 54.6661 77.0732 55.0058 77.1855 55.3933C77.2804 55.7216 77.2953 56.0795 77.4096 56.4006C77.1249 56.7681 76.8607 57.1552 76.5906 57.5192C75.0472 59.6006 73.5012 61.681 71.968 63.7707C71.7195 63.7612 71.471 63.7529 71.2223 63.7454C68.6735 59.0733 66.3546 54.2819 64.025 49.4978C64.3239 49.2242 64.5912 48.9052 64.8488 48.6288L64.8489 48.6289Z" fill="#E43D4C"/>
<path d="M113.178 53.017C112.597 53.4601 111.91 52.556 112.492 52.1123C113.073 51.6692 113.759 52.5734 113.178 53.017Z" fill="#E43D4C"/>
<path d="M92.9546 60.9207C93.5356 60.4776 94.2222 61.3818 93.6404 61.8254C93.0595 62.2685 92.3728 61.3644 92.9546 60.9207Z" fill="#E43D4C"/>
<path d="M63.4722 69.89C64.0531 69.4469 64.7398 70.351 64.158 70.7947C63.577 71.2378 62.8904 70.3337 63.4722 69.89Z" fill="#E43D4C"/>
<path d="M36.1114 84.6654L36.1776 84.6148C36.7585 84.1717 37.4452 85.0757 36.8632 85.5195L36.797 85.5701C36.2161 86.013 35.5295 85.1091 36.1114 84.6654Z" fill="#E43D4C"/>
<path d="M20.416 92.5903C20.5039 92.7063 20.5458 92.8666 20.5262 93.0109C20.5188 93.0862 20.4938 93.1543 20.4518 93.2152C20.4196 93.2845 20.3715 93.3417 20.3075 93.3868C20.1867 93.4706 20.0366 93.5245 19.8878 93.4976C19.7397 93.4709 19.6061 93.4011 19.5133 93.2786L19.4219 93.158C19.334 93.042 19.2919 92.8817 19.3116 92.7373C19.319 92.662 19.3438 92.5939 19.3859 92.533C19.4183 92.4637 19.4663 92.4065 19.5303 92.3614C19.651 92.2776 19.8012 92.2237 19.9499 92.2504C20.0981 92.2771 20.2317 92.3469 20.3245 92.4694L20.4159 92.59L20.416 92.5903Z" fill="#E43D4C"/>
<path d="M32.9507 92.0248C33.5316 91.5817 34.2183 92.4856 33.6365 92.9295C33.0555 93.3726 32.3689 92.4684 32.9507 92.0248Z" fill="#E43D4C"/>
<path d="M38.3143 68.0884C38.4022 68.2045 38.4442 68.3647 38.4246 68.5092C38.4172 68.5844 38.3924 68.6526 38.3503 68.7135C38.318 68.7828 38.2699 68.84 38.2059 68.885C38.0852 68.9689 37.935 69.0228 37.7863 68.996C37.6381 68.9694 37.5045 68.8995 37.4116 68.777L37.3202 68.6564C37.2323 68.5404 37.1902 68.3801 37.21 68.2357C37.2174 68.1604 37.2422 68.0923 37.2843 68.0314C37.3166 67.9621 37.3647 67.9049 37.4287 67.8598C37.5495 67.776 37.6996 67.7221 37.8483 67.7488C37.9965 67.7755 38.1301 67.8453 38.2229 67.9678L38.3143 68.0884Z" fill="#E43D4C"/>
<path d="M33.8806 63.4279C33.2996 63.871 32.613 62.967 33.1949 62.5232C33.7759 62.0801 34.4625 62.9841 33.8806 63.4279Z" fill="#E43D4C"/>
<path d="M17.5903 72.597C17.5636 72.7457 17.494 72.8797 17.3716 72.973L17.2512 73.0648C17.1354 73.153 16.9756 73.1954 16.8316 73.1756C16.7566 73.1683 16.6886 73.1435 16.6279 73.1013C16.5589 73.069 16.5019 73.0208 16.457 72.9567C16.3735 72.8357 16.3199 72.6851 16.3467 72.5359C16.3734 72.3873 16.4432 72.2533 16.5654 72.1601L16.6858 72.0683C16.8015 71.9801 16.9614 71.9377 17.1054 71.9575C17.1804 71.9648 17.2484 71.9896 17.309 72.0318C17.3782 72.0643 17.4351 72.1123 17.48 72.1764C17.5635 72.2974 17.617 72.448 17.5901 72.5971L17.5903 72.597Z" fill="#E43D4C"/>
<path d="M63.4995 59.3997C64.0805 58.9566 64.7671 59.8607 64.1853 60.3044C63.6044 60.7475 62.9178 59.8434 63.4995 59.3997Z" fill="#E43D4C"/>
<path d="M56.8825 57.6876C56.3016 58.1307 55.6149 57.2266 56.1969 56.7829C56.7778 56.3398 57.4645 57.2438 56.8825 57.6876Z" fill="#E43D4C"/>
<path d="M60.3512 53.9948C60.9321 53.5517 61.6188 54.4557 61.0368 54.8995C60.4559 55.3425 59.7692 54.4386 60.3512 53.9948Z" fill="#E43D4C"/>
<path d="M85.6384 48.5113C85.0574 48.9543 84.3708 48.0503 84.9527 47.6066C85.5337 47.1636 86.2203 48.0675 85.6384 48.5113Z" fill="#E43D4C"/>
<path d="M104.43 32.5151C104.517 32.6311 104.559 32.7914 104.54 32.9358C104.532 33.0111 104.508 33.0792 104.465 33.1401C104.433 33.2096 104.385 33.2666 104.321 33.3117C104.2 33.3955 104.05 33.4495 103.902 33.4225C103.753 33.3959 103.62 33.326 103.527 33.2036L103.436 33.0829C103.348 32.9669 103.306 32.8067 103.325 32.6622C103.333 32.5869 103.357 32.5188 103.4 32.4579C103.432 32.3886 103.48 32.3314 103.544 32.2863C103.665 32.2025 103.815 32.1486 103.964 32.1753C104.112 32.202 104.245 32.2718 104.338 32.3943L104.43 32.515L104.43 32.5151Z" fill="#E43D4C"/>
<path d="M108.288 36.1529C108.321 36.0836 108.369 36.0264 108.433 35.9813C108.553 35.8975 108.704 35.8436 108.852 35.8703C109 35.897 109.134 35.9668 109.227 36.0893L109.318 36.21C109.406 36.326 109.448 36.4862 109.429 36.6307C109.421 36.7059 109.396 36.7741 109.354 36.835C109.322 36.9043 109.274 36.9615 109.21 37.0065C109.089 37.0903 108.939 37.1443 108.79 37.1175C108.642 37.0908 108.508 37.021 108.416 36.8985L108.324 36.7779C108.236 36.6619 108.194 36.5016 108.214 36.3572C108.221 36.2819 108.246 36.2138 108.288 36.1529Z" fill="#E43D4C"/>
<path d="M106.09 40.9093C105.509 41.3522 104.822 40.4482 105.404 40.0046C105.985 39.5616 106.671 40.4656 106.09 40.9093Z" fill="#E43D4C"/>
<path d="M129.653 31.4859C129.626 31.6345 129.556 31.7685 129.434 31.8618L129.314 31.9535C129.198 32.0418 129.038 32.0841 128.894 32.0645C128.819 32.0572 128.751 32.0322 128.69 31.9902C128.621 31.9579 128.564 31.9097 128.519 31.8455C128.436 31.7245 128.382 31.574 128.409 31.4248C128.436 31.2762 128.506 31.1422 128.628 31.0488L128.748 30.9571C128.864 30.8688 129.024 30.8265 129.168 30.8462C129.243 30.8536 129.311 30.8784 129.372 30.9206C129.441 30.9529 129.498 31.0011 129.543 31.0652C129.626 31.1862 129.68 31.3367 129.653 31.4859V31.4859Z" fill="#E43D4C"/>
<path d="M125.77 24.3581C125.743 24.5067 125.673 24.6407 125.551 24.734L125.431 24.8257C125.315 24.914 125.155 24.9563 125.011 24.9367C124.936 24.9294 124.868 24.9046 124.807 24.8624C124.738 24.8301 124.681 24.7817 124.637 24.7177C124.553 24.5967 124.499 24.4462 124.526 24.297C124.553 24.1484 124.623 24.0144 124.745 23.9212L124.865 23.8294C124.981 23.7412 125.141 23.6988 125.285 23.7184C125.36 23.7258 125.428 23.7506 125.489 23.7928C125.558 23.8252 125.615 23.8733 125.66 23.9374C125.743 24.0584 125.797 24.2089 125.77 24.3581L125.77 24.3581Z" fill="#E43D4C"/>
<path d="M130.158 26.5511C129.577 26.9942 128.89 26.0901 129.472 25.6464C130.053 25.2034 130.74 26.1074 130.158 26.5511V26.5511Z" fill="#E43D4C"/>
<path d="M124.851 33.8344C124.27 34.2774 123.584 33.3734 124.166 32.9297C124.746 32.4868 125.433 33.3907 124.851 33.8344Z" fill="#E43D4C"/>
<path d="M98.0909 64.2954C98.0666 64.2255 98.0608 64.1531 98.0739 64.0786C98.0999 63.9338 98.1685 63.789 98.2926 63.7028C98.4165 63.6168 98.5602 63.5712 98.7123 63.5918L98.924 63.6207C99.0681 63.6403 99.2107 63.7238 99.2988 63.8397C99.3483 63.9001 99.3793 63.9681 99.392 64.0436C99.4163 64.1135 99.422 64.1857 99.4089 64.2604C99.3829 64.4052 99.3145 64.5501 99.1902 64.6364C99.0664 64.7223 98.9226 64.7679 98.7706 64.7472L98.5588 64.7185C98.4147 64.6989 98.2721 64.6155 98.1841 64.4995C98.1345 64.439 98.1034 64.371 98.0908 64.2956L98.0909 64.2954Z" fill="#E43D4C"/>
<path d="M56.6113 70.3626L56.6776 70.3121C57.2585 69.8692 57.9452 70.773 57.3634 71.2168L57.2971 71.2674C56.7161 71.7105 56.0295 70.8065 56.6114 70.3627L56.6113 70.3626Z" fill="#E43D4C"/>
<path d="M137.328 29.7447C137.909 29.3017 138.595 30.2058 138.013 30.6494C137.432 31.0925 136.746 30.1884 137.328 29.7447Z" fill="#E43D4C"/>
<path d="M138.966 35.9182C139.547 35.4751 140.234 36.3792 139.652 36.8229C139.071 37.2659 138.385 36.3619 138.966 35.9182Z" fill="#E43D4C"/>
<path d="M124.407 46.8897C124.383 46.8197 124.377 46.7475 124.39 46.6729C124.416 46.5281 124.485 46.3832 124.609 46.2969C124.733 46.2109 124.877 46.1653 125.029 46.186L125.24 46.2148C125.384 46.2344 125.527 46.3179 125.615 46.4338C125.665 46.4942 125.696 46.5622 125.708 46.6377C125.733 46.7076 125.738 46.7798 125.725 46.8543C125.699 46.9991 125.631 47.144 125.506 47.2302C125.383 47.3161 125.239 47.3619 125.087 47.3412L124.875 47.3123C124.731 47.2927 124.588 47.2091 124.5 47.0933C124.451 47.0328 124.42 46.9648 124.407 46.8894L124.407 46.8897Z" fill="#E43D4C"/>
</svg>
